<?xml version="1.0" encoding="utf-8"?>
<!-- Generator: Adobe Illustrator 15.0.0, SVG Export Plug-In . SVG Version: 6.00 Build 0)  -->
<!DOCTYPE svg PUBLIC "-//W3C//DTD SVG 1.1//EN" "http://www.w3.org/Graphics/SVG/1.1/DTD/svg11.dtd">
<svg version="1.1" id="Layer_1" xmlns="http://www.w3.org/2000/svg" xmlns:xlink="http://www.w3.org/1999/xlink" x="0px" y="0px"
	 width="283.46px" height="258px" viewBox="0 77.1 283.46 258" enable-background="new 0 77.1 283.46 258" xml:space="preserve">
<path fill="#010000" d="M149.712,214.476c-0.812-1.464-2.275-2.276-4.227-2.276h-8.13c-1.789,0-3.415,0.813-4.228,2.276
	c-0.813,1.463-0.488,3.251,0.488,4.715l3.577,5.04c0.975,1.464,2.438,2.275,4.064,2.275s3.089-0.812,4.064-2.275l3.578-5.04
	C150.363,217.727,150.526,215.939,149.712,214.476z"/>
<path fill="#010000" d="M179.629,247.969h-76.256c-4.064,0-7.316,3.252-7.316,7.316s3.252,7.316,7.316,7.316h76.419
	c4.065,0,7.154-3.252,7.154-7.316S183.695,247.969,179.629,247.969z M179.792,256.099h-76.419c-0.487,0-0.813-0.324-0.813-0.813
	c0-0.487,0.325-0.813,0.813-0.813h76.256c0.489,0,0.814,0.325,0.814,0.813C180.444,255.612,180.28,256.099,179.792,256.099z"/>
<path fill="#010000" d="M162.72,132.529h-8.13c-5.364,0-9.755,3.577-9.755,8.129v4.878h6.503v-4.878
	c0-0.487,1.302-1.625,3.252-1.625h8.13c1.789,0,3.251,1.463,3.251,3.252v22.762c0,1.79-1.462,3.252-3.251,3.252h-11.382
	c-5.69,0-9.755,2.765-9.755,6.504v3.252v14.633h6.503v-14.633v-2.602c0.488-0.325,1.626-0.65,3.252-0.65h11.382
	c5.366,0,9.756-4.39,9.756-9.757v-22.762C172.476,136.919,168.086,132.529,162.72,132.529z"/>
<rect x="71.018" y="196.427" fill="#010000" width="55.933" height="6.504"/>
<rect x="156.217" y="196.427" fill="#010000" width="56.906" height="6.504"/>
<rect x="84.676" y="147.162" fill="#010000" width="79.67" height="6.504"/>
<rect x="173.778" y="147.162" fill="#010000" width="25.362" height="6.504"/>
<path fill="#404041" d="M79.473,139.358h-17.56c-1.788,0-3.252,1.463-3.252,3.252v17.56c0,1.789,1.464,3.252,3.252,3.252h4.552
	h6.503h6.504c1.788,0,3.252-1.463,3.252-3.252v-6.503v-6.504v-4.553C82.725,140.821,81.261,139.358,79.473,139.358z"/>
<rect x="67.441" y="165.047" fill="#010000" width="6.504" height="103.085"/>
<path fill="#404041" d="M201.743,142.61v4.553v6.504v6.503c0,1.789,1.463,3.252,3.251,3.252h6.505h6.504h4.552
	c1.788,0,3.252-1.463,3.252-3.252v-17.56c0-1.789-1.464-3.252-3.252-3.252h-17.561C203.206,139.358,201.743,140.821,201.743,142.61z
	"/>
<rect x="210.522" y="165.047" fill="#010000" width="6.505" height="103.085"/>
<path fill="#404041" d="M195.077,288.13l-3.253-20.487c-0.325-1.625-1.625-2.764-3.251-2.764H96.87
	c-1.626,0-2.926,1.139-3.252,2.764l-3.251,20.487c-0.163,0.975,0.162,1.952,0.813,2.603c0.65,0.649,1.463,1.138,2.438,1.138h98.369
	c0.976,0,1.788-0.488,2.439-1.138C195.077,290.082,195.239,289.104,195.077,288.13z"/>
<path fill="#404041" d="M89.066,271.384c-0.651-0.651-1.463-1.139-2.438-1.139H52.645c-1.625,0-3.089,1.302-3.251,2.927
	l-1.625,14.958c-0.163,0.975,0.162,1.789,0.813,2.603c0.65,0.649,1.463,1.139,2.439,1.139h33.169c1.625,0,2.926-1.139,3.251-2.767
	l2.276-14.957C89.879,273.009,89.553,272.034,89.066,271.384z"/>
<path fill="#404041" d="M237.676,287.969l-1.627-14.96c-0.163-1.625-1.625-2.926-3.252-2.926h-33.818
	c-0.976,0-1.789,0.487-2.438,1.138c-0.651,0.65-0.815,1.625-0.815,2.602l2.278,14.958c0.325,1.626,1.625,2.765,3.252,2.765h33.169
	c0.975,0,1.788-0.325,2.438-1.139C237.514,289.756,237.838,288.943,237.676,287.969z"/>
<path fill="#404041" d="M77.522,190.249H63.864c-1.463,0-2.601,1.139-2.601,2.602v13.658c0,1.301,1.138,2.439,2.601,2.439h3.415
	h5.041h5.04c1.463,0,2.602-1.138,2.602-2.602v-5.04v-5.04v-3.415C79.961,191.387,78.822,190.249,77.522,190.249z"/>
<path fill="#404041" d="M220.603,190.249h-13.658c-1.463,0-2.602,1.139-2.602,2.602v13.658c0,1.464,1.139,2.602,2.602,2.602h3.415
	h5.04h5.04c1.464,0,2.603-1.138,2.603-2.602v-5.04v-5.041v-3.415C223.206,191.387,222.067,190.249,220.603,190.249z"/>
<path fill="#FF8200" d="M151.338,189.436h-19.51c-1.789,0-3.252,1.463-3.252,3.252v21.136c0,1.789,1.463,3.253,3.252,3.253h19.51
	c1.789,0,3.252-1.464,3.252-3.253v-21.136C154.59,190.9,153.127,189.436,151.338,189.436z"/>
<polygon fill="none" points="244.286,115.089 39.661,115.089 15.979,138.771 15.979,268.957 40.528,293.507 244.286,293.507 
	268.147,269.645 268.147,138.95 "/>
<polygon fill="#A5A5A5" points="15.979,138.771 6.726,148.025 6.726,259.704 15.979,268.957 "/>
<polygon fill="#A5A5A5" points="244.286,115.089 235.031,105.836 48.914,105.836 39.661,115.089 "/>
<polygon fill="#A5A5A5" points="268.147,269.645 277.4,260.391 277.4,148.204 268.147,138.95 "/>
<polygon fill="#A5A5A5" points="40.528,293.507 49.781,302.76 235.031,302.76 244.286,293.507 "/>
<path fill="#FF8200" d="M40.528,293.507l-24.549-24.55l-9.253-9.253v30.528c0,6.908,5.62,12.527,12.529,12.527h30.527
	L40.528,293.507z"/>
<path fill="#FF8200" d="M19.254,105.836c-6.909,0-12.529,5.621-12.529,12.529v29.66l9.253-9.254l23.682-23.682l9.253-9.253H19.254z"
	/>
<path fill="#FF8200" d="M264.873,105.836h-29.842l9.255,9.253l23.861,23.861l9.253,9.253v-29.839
	C277.4,111.456,271.781,105.836,264.873,105.836z"/>
<path fill="#FF8200" d="M268.147,269.645l-23.861,23.861l-9.255,9.253h29.842c6.908,0,12.527-5.619,12.527-12.527v-29.841
	L268.147,269.645z"/>
</svg>
