<?xml version="1.0" encoding="utf-8"?>
<!-- Generator: Adobe Illustrator 22.1.0, SVG Export Plug-In . SVG Version: 6.00 Build 0)  -->
<svg version="1.1" id="Layer_1" xmlns="http://www.w3.org/2000/svg" xmlns:xlink="http://www.w3.org/1999/xlink" x="0px" y="0px"
	 viewBox="0 0 102.7 136.5" style="enable-background:new 0 0 102.7 136.5;" xml:space="preserve">
<style type="text/css">
	.st0{fill:#010000;}
	.st1{fill:#FF8200;}
	.st2{fill:#404041;}
	.st3{fill:#B1B3B4;}
	.st4{fill:#A5A5A5;}
	.st5{fill:none;stroke:#404041;stroke-width:6;stroke-linecap:round;stroke-miterlimit:10;}
	.st6{fill:none;stroke:#404041;stroke-width:4;stroke-linecap:round;stroke-miterlimit:10;}
</style>
<g>
	<path class="st0" d="M51.2,59.9c-0.9,0-1.7-0.4-2.3-1.1L47.6,57c-0.9-1.2-0.6-2.2-0.3-2.7c0.3-0.6,1-1.3,2.6-1.3h2.5
		c1.5,0,2.2,0.8,2.5,1.3s0.6,1.4-0.1,2.7l-1.2,1.7C53,59.4,52.1,59.9,51.2,59.9z"/>
</g>
<rect x="52.8" y="42.3" transform="matrix(0.8001 -0.5999 0.5999 0.8001 -13.5138 48.168)" class="st1" width="25.4" height="4.1"/>
<path class="st2" d="M82.4,99.3H19.8c-2.4,0-4.4,2-4.4,4.4s2,4.4,4.4,4.4h62.6c2.4,0,4.4-2,4.4-4.4S84.9,99.3,82.4,99.3z"/>
<rect x="20.8" y="45.2" class="st3" width="1.5" height="53.2"/>
<rect x="20.8" y="25.7" class="st3" width="1.5" height="2.5"/>
<rect x="24.2" y="45.2" class="st3" width="1.5" height="53.2"/>
<rect x="24.2" y="25.7" class="st3" width="1.5" height="2.5"/>
<rect x="48.7" y="61.3" class="st3" width="1.5" height="37.2"/>
<rect x="48.7" y="25.7" class="st3" width="1.5" height="9.2"/>
<rect x="52.1" y="25.8" class="st3" width="1.5" height="9.2"/>
<rect x="52.1" y="61.3" class="st3" width="1.5" height="37.2"/>
<rect x="76.6" y="45.2" class="st3" width="1.5" height="53.2"/>
<rect x="76.6" y="25.7" class="st3" width="1.5" height="2.5"/>
<rect x="80" y="45.2" class="st3" width="1.5" height="53.2"/>
<rect x="80" y="25.7" class="st3" width="1.5" height="2.5"/>
<path class="st2" d="M80.9,28.8h-3.7c-2,0-3.6,1.6-3.6,3.6v8.7c0,2,1.6,3.6,3.6,3.6h3.7c2,0,3.6-1.6,3.6-3.6v-8.8
	C84.5,30.4,82.9,28.8,80.9,28.8z"/>
<g>
	<path class="st0" d="M47.3,45.8c1,0,1.8-0.8,1.8-1.8V32.1c0-1-0.8-1.8-1.8-1.8h-4.2c-1.1,0-1.8,0.5-1.9,0.6v15.2h-3.1V30.8
		c0-2.1,2.1-3.6,4.9-3.6h4.2c2.7,0,4.9,2.2,4.9,4.9v11.8c0,2.7-2.2,4.9-4.9,4.9L47.3,45.8L47.3,45.8L47.3,45.8z"/>
</g>
<path class="st2" d="M81.6,15.4H63H47.6H20.7c-2.4,0-4.4,2-4.4,4.4s2,4.4,4.4,4.4h26.9H63h18.6c2.4,0,4.4-2,4.4-4.4
	S84,15.4,81.6,15.4z"/>
<rect x="34.8" y="31.7" transform="matrix(0.6 -0.8 0.8 0.6 -20.7851 47.1948)" class="st1" width="4.1" height="25.4"/>
<path class="st2" d="M25.1,28.8h-3.7c-2,0-3.6,1.6-3.6,3.6v8.7c0,2,1.6,3.6,3.6,3.6h3.7c2,0,3.6-1.6,3.6-3.6v-8.8
	C28.7,30.4,27.1,28.8,25.1,28.8z"/>
<path class="st2" d="M55.4,36.1h-8.5c-1.1,0-2,0.9-2,2v15.5c0,1.1,0.9,2,2,2h8.5c1.1,0,2-0.9,2-2V38.2C57.4,37,56.5,36.1,55.4,36.1z
	"/>
<rect x="93.9" y="7.5" class="st4" width="6" height="119.4"/>
<line class="st5" x1="3" y1="133.5" x2="99.7" y2="133.5"/>
<rect x="2.4" y="7.5" class="st4" width="6" height="119.4"/>
<line class="st6" x1="2.4" y1="2" x2="99.9" y2="2"/>
<path class="st2" d="M86.8,103.7v17.4c0,2.1-1.7,3.8-3.8,3.8l0,0c-1.4,0-2.6-0.8-3.2-2.1l-6-14.7L86.8,103.7z"/>
<path class="st2" d="M15.4,103.7v17.4c0,2.1,1.7,3.8,3.8,3.8l0,0c1.4,0,2.6-0.8,3.2-2.1l6.1-14.7L15.4,103.7z"/>
</svg>
