<?xml version="1.0" encoding="utf-8"?>
<!-- Generator: Adobe Illustrator 22.1.0, SVG Export Plug-In . SVG Version: 6.00 Build 0)  -->
<svg version="1.1" id="Layer_1" xmlns="http://www.w3.org/2000/svg" xmlns:xlink="http://www.w3.org/1999/xlink" x="0px" y="0px"
	 viewBox="0 0 116.9 98" style="enable-background:new 0 0 116.9 98;" xml:space="preserve">
<style type="text/css">
	.st0{fill:#404041;}
	.st1{fill:#010000;}
	.st2{fill:#FF8200;}
</style>
<path class="st0" d="M0.5,97.1c0.4,0.5,0.9,0.7,1.5,0.7h20.4c1,0,1.8-0.7,2-1.7l1.4-9.2c0.1-0.6-0.1-1.2-0.5-1.6s-0.8-0.6-1.5-0.7
	L2.5,79.7C1,79.3,0,80.3,0,81.4v14.2C-0.1,96.2,0.1,96.7,0.5,97.1z"/>
<path class="st1" d="M62.7,52.4c-0.5-0.9-1.4-1.4-2.6-1.4h-5c-1.1,0-2.1,0.5-2.6,1.4s-0.3,2,0.3,2.9l2.2,3.1
	c0.6,0.9,1.5,1.4,2.5,1.4s1.9-0.5,2.5-1.4l2.2-3.1C63.1,54.4,63.2,53.3,62.7,52.4z"/>
<path class="st0" d="M68.5,52l-2.4-13c-0.3-1.3-1.4-2-2.5-2H51.6c-1.2,0-2,0.7-2.4,2l-2.4,13c-0.2,1.1,1,2,2.1,2h17.7
	C67.7,54,68.7,53.1,68.5,52z"/>
<path class="st1" d="M70.7,0h-5c-3.3,0-6,2.2-6,5v2.6h4V5.7c0-0.9,0.8-1.7,2-1.7h5c1.3,0,2,0.9,2,2v14c0,1.1-0.9,2-2,2h-8.8
	c-3.5,0-4.2,1.7-4.2,4v2v11.8h4V28l0,0c0-1.6,0.3-2,1.9-2h7.1c3.3,0,6-2.7,6-6V6C76.7,2.7,74,0,70.7,0z"/>
<polygon class="st1" points="14.3,47.9 46.1,47.9 45.3,51.9 14.3,51.9 "/>
<polygon class="st1" points="69.1,47.9 101.7,47.9 101.7,51.9 69.9,51.9 "/>
<rect x="22.9" y="9" class="st1" width="48.4" height="4"/>
<rect x="78.1" y="9" class="st1" width="15.2" height="4"/>
<path class="st0" d="M19.5,4.2H8.7c-1.1,0-2,0.9-2,2V17c0,1.1,0.9,2,2,2h2.8h4h4c1.1,0,2-0.9,2-2v-4V9V6.2
	C21.5,5.1,20.6,4.2,19.5,4.2z"/>
<polygon class="st1" points="12.1,20.4 16.1,20.4 16.1,81.4 12.1,80.5 "/>
<path class="st0" d="M94.7,6.2V9v4v4c0,1.1,0.9,2,2,2h4h4h2.8c1.1,0,2-0.9,2-2V6.2c0-1.1-0.9-2-2-2H96.7C95.6,4.2,94.7,5.1,94.7,6.2
	z"/>
<polygon class="st1" points="100.1,20.4 104.1,20.4 104.1,80.6 100.1,81.5 "/>
<path class="st0" d="M90.6,95.7l-2-12.6c-0.2-1-1-1.7-2-1.7H30.2c-1,0-1.8,0.7-2,1.7l-2,12.6c-0.1,0.6,0.1,1.2,0.5,1.6
	s0.9,0.7,1.5,0.7h60.5c0.6,0,1.1-0.3,1.5-0.7S90.7,96.3,90.6,95.7z"/>
<path class="st0" d="M116.8,95.6V81.4c0-1-1.1-2.1-2.5-1.7L93,84.6c-0.6,0.2-1.1,0.3-1.5,0.7s-0.6,1-0.5,1.6l1.4,9.2
	c0.2,1,1,1.7,2,1.7h20.4c0.6,0,1.1-0.2,1.5-0.7C116.7,96.7,116.9,96.2,116.8,95.6z"/>
<path class="st0" d="M18.3,44.1H9.9c-0.9,0-1.6,0.7-1.6,1.6V54c0,0.8,0.7,1.5,1.6,1.5H12h3.1h3.1c0.9,0,1.6-0.7,1.6-1.6v-3.1v-3.1
	v-2.1C19.8,44.8,19.1,44.1,18.3,44.1z"/>
<path class="st0" d="M106.3,44.1h-8.4c-0.9,0-1.6,0.7-1.6,1.6V54c0,0.9,0.7,1.6,1.6,1.6h2.1h3.1h3.1c0.9,0,1.6-0.7,1.6-1.6V51v-3.1
	v-2.1C107.9,44.8,107.2,44.1,106.3,44.1z"/>
<g>
	<polygon class="st1" points="38,71 40.9,75 74.7,75 77.5,71 	"/>
	<path class="st1" d="M75.7,76h5.5c0.3,0,0.4-0.3,0.4-0.5c0-0.3-0.2-0.5-0.5-0.5h-4.7l2.3-3.2l0.6-0.8h1.9c2.5,0,4.5,2,4.5,4.5
		S83.7,80,81.2,80h-47c-2.5,0-4.5-2-4.5-4.5s2-4.5,4.5-4.5h2.1l0.6,0.8l2.3,3.2h-4.9c-0.3,0-0.5,0.2-0.5,0.5s0.2,0.5,0.5,0.5h5.6
		H75.7z"/>
</g>
<polygon class="st2" points="74.7,75 40.9,75 38,71 77.5,71 "/>
</svg>
