<?xml version="1.0" encoding="utf-8"?>
<!-- Generator: Adobe Illustrator 21.0.0, SVG Export Plug-In . SVG Version: 6.00 Build 0)  -->
<svg version="1.1" id="Layer_1" xmlns="http://www.w3.org/2000/svg" xmlns:xlink="http://www.w3.org/1999/xlink" x="0px" y="0px"
	 viewBox="0 0 114.8 98" style="enable-background:new 0 0 114.8 98;" xml:space="preserve">
<style type="text/css">
	.st0{fill:#010000;}
	.st1{fill:#FF8200;}
	.st2{fill:#404041;}
</style>
<path class="st0" d="M61.7,50.4c-0.5-0.9-1.4-1.4-2.6-1.4h-5c-1.1,0-2.1,0.5-2.6,1.4c-0.5,0.9-0.3,2,0.3,2.9l2.2,3.1
	c0.6,0.9,1.5,1.4,2.5,1.4c1,0,1.9-0.5,2.5-1.4l2.2-3.1C62.1,52.4,62.2,51.3,61.7,50.4z"/>
<path class="st0" d="M80.1,71H33.2c-2.5,0-4.5,2-4.5,4.5s2,4.5,4.5,4.5h47c2.5,0,4.4-2,4.4-4.5S82.6,71,80.1,71z M80.2,76h-47
	c-0.3,0-0.5-0.2-0.5-0.5s0.2-0.5,0.5-0.5h46.9c0.3,0,0.5,0.2,0.5,0.5C80.6,75.7,80.5,76,80.2,76z"/>
<path class="st1" d="M62.7,35h-12c-1.1,0-2,0.9-2,2v13c0,1.1,0.9,2,2,2h12c1.1,0,2-0.9,2-2V37C64.7,35.9,63.8,35,62.7,35z"/>
<path class="st0" d="M69.7,0h-5c-3.3,0-6,2.2-6,5v3h4V5c0-0.3,0.8-1,2-1h5c1.1,0,2,0.9,2,2v14c0,1.1-0.9,2-2,2h-7c-3.5,0-6,1.7-6,4
	v2v9h4v-9v-1.6c0.3-0.2,1-0.4,2-0.4h7c3.3,0,6-2.7,6-6V6C75.7,2.7,73,0,69.7,0z"/>
<rect x="13.3" y="39.3" class="st0" width="34.4" height="4"/>
<rect x="65.7" y="39.3" class="st0" width="35" height="4"/>
<rect x="21.7" y="9" class="st0" width="49" height="4"/>
<rect x="76.5" y="9" class="st0" width="15.6" height="4"/>
<path class="st2" d="M18.5,4.2H7.7c-1.1,0-2,0.9-2,2V17c0,1.1,0.9,2,2,2h2.8h4h4c1.1,0,2-0.9,2-2v-4V9V6.2
	C20.5,5.1,19.6,4.2,18.5,4.2z"/>
<rect x="11.1" y="20" class="st0" width="4" height="63.4"/>
<path class="st2" d="M93.7,6.2V9v4v4c0,1.1,0.9,2,2,2h4h4h2.8c1.1,0,2-0.9,2-2V6.2c0-1.1-0.9-2-2-2H95.7C94.6,4.2,93.7,5.1,93.7,6.2
	z"/>
<rect x="99.1" y="20" class="st0" width="4" height="63.4"/>
<path class="st2" d="M89.6,95.7l-2-12.6c-0.2-1-1-1.7-2-1.7H29.2c-1,0-1.8,0.7-2,1.7l-2,12.6c-0.1,0.6,0.1,1.2,0.5,1.6
	c0.4,0.4,0.9,0.7,1.5,0.7h60.5c0.6,0,1.1-0.3,1.5-0.7S89.7,96.3,89.6,95.7z"/>
<path class="st2" d="M24.4,85.4c-0.4-0.4-0.9-0.7-1.5-0.7H2c-1,0-1.9,0.8-2,1.8l-1,9.2c-0.1,0.6,0.1,1.1,0.5,1.6
	c0.4,0.4,0.9,0.7,1.5,0.7h20.4c1,0,1.8-0.7,2-1.7l1.4-9.2C24.9,86.4,24.7,85.8,24.4,85.4z"/>
<path class="st2" d="M115.8,95.6l-1-9.2c-0.1-1-1-1.8-2-1.8H92c-0.6,0-1.1,0.3-1.5,0.7s-0.5,1-0.5,1.6l1.4,9.2c0.2,1,1,1.7,2,1.7
	h20.4c0.6,0,1.1-0.2,1.5-0.7C115.7,96.7,115.9,96.2,115.8,95.6z"/>
<path class="st2" d="M17.3,35.5H8.9c-0.9,0-1.6,0.7-1.6,1.6v8.4C7.3,46.3,8,47,8.9,47H11h3.1h3.1c0.9,0,1.6-0.7,1.6-1.6v-3.1v-3.1
	v-2.1C18.8,36.2,18.1,35.5,17.3,35.5z"/>
<path class="st2" d="M105.3,35.5h-8.4c-0.9,0-1.6,0.7-1.6,1.6v8.4c0,0.9,0.7,1.6,1.6,1.6h2.1h3.1h3.1c0.9,0,1.6-0.7,1.6-1.6v-3.1
	v-3.1v-2.1C106.9,36.2,106.2,35.5,105.3,35.5z"/>
</svg>
