<?xml version="1.0" encoding="UTF-8" standalone="no"?>
<svg
   width="149.88695pt"
   height="126pt"
   viewBox="0 0 149.88695 126"
   version="1.2"
   id="svg104"
   sodipodi:docname="Sans titre.svg"
   inkscape:version="1.1 (c68e22c387, 2021-05-23)"
   xmlns:inkscape="http://www.inkscape.org/namespaces/inkscape"
   xmlns:sodipodi="http://sodipodi.sourceforge.net/DTD/sodipodi-0.dtd"
   xmlns="http://www.w3.org/2000/svg"
   xmlns:svg="http://www.w3.org/2000/svg">
  <sodipodi:namedview
     id="namedview106"
     pagecolor="#ffffff"
     bordercolor="#666666"
     borderopacity="1.0"
     inkscape:pageshadow="2"
     inkscape:pageopacity="0.0"
     inkscape:pagecheckerboard="0"
     inkscape:document-units="pt"
     showgrid="false"
     fit-margin-top="0"
     fit-margin-left="0"
     fit-margin-right="0"
     fit-margin-bottom="0"
     inkscape:zoom="1.624"
     inkscape:cx="-35.098522"
     inkscape:cy="84.051724"
     inkscape:window-width="1920"
     inkscape:window-height="1001"
     inkscape:window-x="2391"
     inkscape:window-y="310"
     inkscape:window-maximized="1"
     inkscape:current-layer="svg104" />
  <defs
     id="defs17">
    <clipPath
       id="clip1">
      <path
         d="M 112.5,227 H 146 v 23.63672 h -33.5 z m 0,0"
         id="path2" />
    </clipPath>
    <clipPath
       id="clip2">
      <path
         d="m 186,124.63672 h 25 V 176 h -25 z m 0,0"
         id="path5" />
    </clipPath>
    <clipPath
       id="clip3">
      <path
         d="m 146,229 h 83 v 21.63672 h -83 z m 0,0"
         id="path8" />
    </clipPath>
    <clipPath
       id="clip4">
      <path
         d="m 229,227 h 33.5 v 23.63672 H 229 Z m 0,0"
         id="path11" />
    </clipPath>
    <clipPath
       id="clip5">
      <path
         d="m 115.09375,221.98047 h 28.5 v 28.5 h -28.5 z m 0,0"
         id="path14" />
    </clipPath>
  </defs>
  <g
     id="surface1"
     transform="translate(-112.5,-124.63672)">
    <g
       clip-path="url(#clip1)"
       clip-rule="nonzero"
       id="g21">
      <path
         style="fill:#3f3f3f;fill-opacity:1;fill-rule:nonzero;stroke:none"
         d="m 113.16016,249.75781 c 0.51172,0.64453 1.15234,0.90235 1.92187,0.90235 h 26.17188 c 1.28125,0 2.30859,-0.90235 2.5664,-2.19141 l 1.79297,-11.85547 c 0.12891,-0.77344 -0.125,-1.54297 -0.64062,-2.05859 -0.51172,-0.51563 -1.02344,-0.77344 -1.92188,-0.90235 l -27.32422,-6.3164 c -1.92578,-0.51563 -3.20703,0.77343 -3.20703,2.1914 v 18.29688 c -0.1289,0.77344 0.125,1.41797 0.64063,1.93359 z m 0,0"
         id="path19" />
    </g>
    <path
       style="fill:#000000;fill-opacity:1;fill-rule:nonzero;stroke:none"
       d="M 192.95312,192.16016 C 192.3125,191 191.15625,190.35547 189.61719,190.35547 h -6.41407 c -1.41015,0 -2.69531,0.64453 -3.33593,1.80469 -0.64063,1.15625 -0.38672,2.57421 0.38281,3.73437 l 2.82422,3.99609 c 0.76953,1.16016 1.92578,1.80469 3.20703,1.80469 1.28125,0 2.4375,-0.64453 3.20703,-1.80469 l 2.82422,-3.99609 c 1.15234,-1.16016 1.28125,-2.57812 0.64062,-3.73437 z m 0,0"
       id="path23" />
    <path
       style="fill:#3f3f3f;fill-opacity:1;fill-rule:nonzero;stroke:none"
       d="m 200.39453,191.64453 -3.08203,-16.75391 c -0.38281,-1.67578 -1.79297,-2.57812 -3.20703,-2.57812 h -15.39453 c -1.53907,0 -2.5625,0.90234 -3.07813,2.57812 l -3.07812,16.75391 c -0.25782,1.41406 1.28125,2.57422 2.69531,2.57422 h 22.70703 c 1.41016,0 2.69141,-1.16016 2.4375,-2.57422 z m 0,0"
       id="path25" />
    <g
       clip-path="url(#clip2)"
       clip-rule="nonzero"
       id="g29">
      <path
         style="fill:#000000;fill-opacity:1;fill-rule:nonzero;stroke:none"
         d="m 203.21484,124.63672 h -6.41406 c -4.23437,0 -7.69531,2.83594 -7.69531,6.4414 v 3.35157 h 5.1289 v -2.44922 c 0,-1.16016 1.02735,-2.19141 2.56641,-2.19141 h 6.41406 c 1.66797,0 2.56641,1.16016 2.56641,2.57813 v 18.03906 c 0,1.41797 -1.15625,2.57812 -2.56641,2.57812 h -11.28906 c -4.48828,0 -5.38672,2.19141 -5.38672,5.15625 v 17.78125 h 5.12891 v -15.20312 c 0,-2.0625 0.38672,-2.57813 2.4375,-2.57813 h 9.10937 c 4.23438,0 7.69532,-3.48046 7.69532,-7.73437 v -18.03906 c 0,-4.25 -3.46094,-7.73047 -7.69532,-7.73047 z m 0,0"
         id="path27" />
    </g>
    <path
       style="fill:#000000;fill-opacity:1;fill-rule:nonzero;stroke:none"
       d="m 130.86328,186.35937 h 40.79297 l -1.02734,5.15625 h -39.76563 z m 0,0"
       id="path31" />
    <path
       style="fill:#000000;fill-opacity:1;fill-rule:nonzero;stroke:none"
       d="m 201.16406,186.35937 h 41.82031 v 5.15625 H 202.1875 Z m 0,0"
       id="path33" />
    <path
       style="fill:#000000;fill-opacity:1;fill-rule:nonzero;stroke:none"
       d="m 141.89453,136.23437 h 62.08984 v 5.15235 h -62.08984 z m 0,0"
       id="path35" />
    <path
       style="fill:#000000;fill-opacity:1;fill-rule:nonzero;stroke:none"
       d="m 212.70703,136.23437 h 19.5 v 5.15235 h -19.5 z m 0,0"
       id="path37" />
    <path
       style="fill:#3f3f3f;fill-opacity:1;fill-rule:nonzero;stroke:none"
       d="m 137.53516,130.04687 h -13.85547 c -1.41406,0 -2.56641,1.16016 -2.56641,2.57813 v 13.91797 c 0,1.41797 1.15235,2.57812 2.56641,2.57812 h 13.85547 c 1.41015,0 2.5625,-1.16015 2.5625,-2.57812 V 132.625 c 0,-1.41797 -1.15235,-2.57813 -2.5625,-2.57813 z m 0,0"
       id="path39" />
    <path
       style="fill:#000000;fill-opacity:1;fill-rule:nonzero;stroke:none"
       d="m 128.03906,150.92187 h 5.13281 v 78.60547 l -5.13281,-1.16015 z m 0,0"
       id="path41" />
    <path
       style="fill:#3f3f3f;fill-opacity:1;fill-rule:nonzero;stroke:none"
       d="m 234.00391,132.625 v 13.91797 c 0,1.41797 1.15234,2.57812 2.5664,2.57812 h 13.85156 c 1.41407,0 2.56641,-1.16015 2.56641,-2.57812 V 132.625 c 0,-1.41797 -1.15234,-2.57813 -2.56641,-2.57813 h -13.85156 c -1.41406,0 -2.5664,1.16016 -2.5664,2.57813 z m 0,0"
       id="path43" />
    <path
       style="fill:#000000;fill-opacity:1;fill-rule:nonzero;stroke:none"
       d="m 240.92969,150.92187 h 5.13281 v 77.57422 l -5.13281,1.16016 z m 0,0"
       id="path45" />
    <g
       clip-path="url(#clip3)"
       clip-rule="nonzero"
       id="g49">
      <path
         style="fill:#3f3f3f;fill-opacity:1;fill-rule:nonzero;stroke:none"
         d="m 228.74219,247.95312 -2.5625,-16.23437 c -0.25782,-1.28906 -1.28516,-2.19141 -2.56641,-2.19141 h -72.35547 c -1.28125,0 -2.30859,0.90235 -2.5625,2.19141 l -2.5664,16.23437 c -0.12891,0.77344 0.1289,1.54688 0.64062,2.0625 0.51172,0.51563 1.15625,0.90235 1.92578,0.90235 h 77.60938 c 0.76953,0 1.41406,-0.38672 1.92578,-0.90235 0.51172,-0.51562 0.64062,-1.28906 0.51172,-2.0625 z m 0,0"
         id="path47" />
    </g>
    <g
       clip-path="url(#clip4)"
       clip-rule="nonzero"
       id="g53">
      <path
         style="fill:#3f3f3f;fill-opacity:1;fill-rule:nonzero;stroke:none"
         d="m 262.35547,247.82422 v -18.29688 c 0,-1.28906 -1.41406,-2.70703 -3.20703,-2.1914 l -27.32422,6.3164 c -0.77344,0.25782 -1.41406,0.38672 -1.92578,0.90235 -0.51172,0.51562 -0.76953,1.28515 -0.64063,2.05859 l 1.79297,11.85547 c 0.25781,1.28906 1.28516,2.19141 2.56641,2.19141 h 26.17187 c 0.76953,0 1.41016,-0.25782 1.92188,-0.90235 0.51562,-0.51562 0.76953,-1.16015 0.64453,-1.93359 z m 0,0"
         id="path51" />
    </g>
    <path
       style="fill:#3f3f3f;fill-opacity:1;fill-rule:nonzero;stroke:none"
       d="m 135.99219,181.46484 h -10.77344 c -1.15625,0 -2.05469,0.89844 -2.05469,2.0586 v 10.69531 c 0,1.03125 0.89844,1.93359 2.05469,1.93359 h 10.64844 c 1.15234,0 2.05078,-0.90234 2.05078,-2.0625 v -10.69531 c 0,-1.03125 -0.89844,-1.92969 -1.92578,-1.92969 z m 0,0"
       id="path55" />
    <path
       style="fill:#3f3f3f;fill-opacity:1;fill-rule:nonzero;stroke:none"
       d="m 248.88281,181.46484 h -10.77344 c -1.15625,0 -2.05468,0.89844 -2.05468,2.0586 v 10.69531 c 0,1.16016 0.89843,2.0625 2.05468,2.0625 h 10.64454 c 1.15625,0 2.05468,-0.90234 2.05468,-2.0625 v -10.56641 c 0.12891,-1.28906 -0.76953,-2.1875 -1.92578,-2.1875 z m 0,0"
       id="path57" />
    <path
       style="fill:#000000;fill-opacity:1;fill-rule:nonzero;stroke:none"
       d="m 161.26562,216.125 3.71875,5.15625 h 43.36329 l 3.58984,-5.15625 z m 0,0"
       id="path59" />
    <path
       style="fill:#000000;fill-opacity:1;fill-rule:nonzero;stroke:none"
       d="m 209.62891,222.57031 h 7.05468 c 0.38672,0 0.51563,-0.38672 0.51563,-0.64453 0,-0.38672 -0.25781,-0.64453 -0.64453,-0.64453 h -6.02735 l 2.94922,-4.125 0.76953,-1.03125 h 2.4375 c 3.20703,0 5.77344,2.57812 5.77344,5.80078 0,3.21875 -2.56641,5.79688 -5.77344,5.79688 h -60.29297 c -3.20703,0 -5.77343,-2.57813 -5.77343,-5.79688 0,-3.22266 2.5664,-5.80078 5.77343,-5.80078 h 2.69532 l 0.76953,1.03125 2.94922,4.125 h -6.28516 c -0.38672,0 -0.64062,0.25781 -0.64062,0.64453 0,0.38672 0.2539,0.64453 0.64062,0.64453 z m 0,0"
       id="path61" />
    <path
       style="fill:#ff7f00;fill-opacity:1;fill-rule:nonzero;stroke:none"
       d="m 208.34766,221.28125 h -43.36329 l -3.71875,-5.15625 h 50.67188 z m 0,0"
       id="path63" />
    <g
       clip-path="url(#clip5)"
       clip-rule="nonzero"
       id="g67">
      <path
         style="fill:#ff6e00;fill-opacity:1;fill-rule:evenodd;stroke:none"
         d="m 121.22266,221.98047 h 16.35546 c 3.3711,0 6.13282,2.75781 6.13282,6.13281 v 16.35156 c 0,3.3711 -2.76172,6.13282 -6.13282,6.13282 h -16.35546 c -3.3711,0 -6.12891,-2.76172 -6.12891,-6.13282 v -16.35156 c 0,-3.375 2.75781,-6.13281 6.12891,-6.13281"
         id="path65" />
    </g>
    <path
       style="fill:#ffffff;fill-opacity:1;fill-rule:evenodd;stroke:none"
       d="m 130.5625,245.35937 h -2.09375 c -0.12891,0 -0.23047,0.10547 -0.23047,0.23438 0,0.125 0.10156,0.23047 0.23047,0.23047 h 2.09375 c 0.12891,0 0.23437,-0.10547 0.23437,-0.23047 0,-0.12891 -0.10546,-0.23438 -0.23437,-0.23438"
       id="path69" />
    <path
       style="fill:#ffffff;fill-opacity:1;fill-rule:evenodd;stroke:none"
       d="m 126.60938,243.73047 c 0,-0.125 -0.10547,-0.23047 -0.23438,-0.23047 -0.125,0 -0.23047,0.10547 -0.23047,0.23047 0,0.1289 0.10547,0.23437 0.23047,0.23437 0.12891,0 0.23438,-0.10547 0.23438,-0.23437"
       id="path71" />
    <path
       style="fill:#ffffff;fill-opacity:1;fill-rule:evenodd;stroke:none"
       d="m 134.98047,245.59375 c 0,-0.12891 -0.10156,-0.23438 -0.23047,-0.23438 -0.12891,0 -0.23047,0.10547 -0.23047,0.23438 0,0.125 0.10156,0.23047 0.23047,0.23047 0.12891,0 0.23047,-0.10547 0.23047,-0.23047"
       id="path73" />
    <path
       style="fill:#ffffff;fill-opacity:1;fill-rule:evenodd;stroke:none"
       d="m 134.98047,243.73047 c 0,-0.125 -0.10156,-0.23047 -0.23047,-0.23047 -0.12891,0 -0.23047,0.10547 -0.23047,0.23047 0,0.1289 0.10156,0.23437 0.23047,0.23437 0.12891,0 0.23047,-0.10547 0.23047,-0.23437"
       id="path75" />
    <path
       style="fill:#ffffff;fill-opacity:1;fill-rule:evenodd;stroke:none"
       d="m 126.60938,245.59375 c 0,-0.12891 -0.10547,-0.23438 -0.23438,-0.23438 -0.125,0 -0.23047,0.10547 -0.23047,0.23438 0,0.125 0.10547,0.23047 0.23047,0.23047 0.12891,0 0.23438,-0.10547 0.23438,-0.23047"
       id="path77" />
    <path
       style="fill:#ffffff;fill-opacity:1;fill-rule:evenodd;stroke:none"
       d="m 128.70312,243.73047 c 0,-0.125 -0.10546,-0.23047 -0.23437,-0.23047 -0.12891,0 -0.23047,0.10547 -0.23047,0.23047 0,0.1289 0.10156,0.23437 0.23047,0.23437 0.12891,0 0.23437,-0.10547 0.23437,-0.23437"
       id="path79" />
    <path
       style="fill:#ffffff;fill-opacity:1;fill-rule:evenodd;stroke:none"
       d="m 139.63672,242.10156 c 0,-0.2539 -0.21094,-0.46484 -0.46875,-0.46484 -0.25391,0 -0.46485,0.21094 -0.46485,0.46484 0,0.25781 0.21094,0.46875 0.46485,0.46875 0.25781,0 0.46875,-0.21094 0.46875,-0.46875"
       id="path81" />
    <path
       style="fill:#ffffff;fill-opacity:1;fill-rule:evenodd;stroke:none"
       d="m 121.02734,242.56641 c 0,-0.51172 -0.41796,-0.92579 -0.92968,-0.92579 -0.51172,0 -0.92969,0.41407 -0.92969,0.92579 0,0.51562 0.41797,0.93359 0.92969,0.93359 0.51172,0 0.92968,-0.41797 0.92968,-0.93359"
       id="path83" />
    <path
       style="fill:#ffffff;fill-opacity:1;fill-rule:evenodd;stroke:none"
       d="m 132.88672,243.73047 c 0,-0.125 -0.10156,-0.23047 -0.23047,-0.23047 -0.12891,0 -0.23047,0.10547 -0.23047,0.23047 0,0.1289 0.10156,0.23437 0.23047,0.23437 0.12891,0 0.23047,-0.10547 0.23047,-0.23437"
       id="path85" />
    <path
       style="fill:#ffffff;fill-opacity:1;fill-rule:evenodd;stroke:none"
       d="m 124.51563,243.73047 c 0,-0.125 -0.10547,-0.23047 -0.23047,-0.23047 -0.12891,0 -0.23438,0.10547 -0.23438,0.23047 0,0.1289 0.10547,0.23437 0.23438,0.23437 0.125,0 0.23047,-0.10547 0.23047,-0.23437"
       id="path87" />
    <path
       style="fill:#ffffff;fill-opacity:1;fill-rule:evenodd;stroke:none"
       d="m 124.51563,245.59375 c 0,-0.12891 -0.10547,-0.23438 -0.23047,-0.23438 -0.12891,0 -0.23438,0.10547 -0.23438,0.23438 0,0.125 0.10547,0.23047 0.23438,0.23047 0.125,0 0.23047,-0.10547 0.23047,-0.23047"
       id="path89" />
    <path
       style="fill:#ffffff;fill-opacity:1;fill-rule:evenodd;stroke:none"
       d="m 130.79687,243.73047 c 0,-0.125 -0.10546,-0.23047 -0.23437,-0.23047 -0.12891,0 -0.23047,0.10547 -0.23047,0.23047 0,0.1289 0.10156,0.23437 0.23047,0.23437 0.12891,0 0.23437,-0.10547 0.23437,-0.23437"
       id="path91" />
    <path
       style="fill:#ffffff;fill-opacity:1;fill-rule:evenodd;stroke:none"
       d="m 128.00391,242.57031 h -4.76953 c -0.35547,0 -0.64844,0.25391 -0.70313,0.60156 l -0.41406,2.76954 c -0.0312,0.20312 0.0273,0.41015 0.16406,0.5664 0.13672,0.15625 0.33203,0.2461 0.53516,0.2461 h 13.63281 c 0.20703,0 0.40234,-0.0898 0.53906,-0.2461 0.13281,-0.15625 0.19141,-0.36328 0.16016,-0.5664 l -0.41407,-2.76954 c -0.0508,-0.34375 -0.35156,-0.60156 -0.69921,-0.60156 z m 0.46484,0.46485 c 0.38672,0 0.69922,0.3125 0.69922,0.69531 0,0.38672 -0.3125,0.69922 -0.69922,0.69922 -0.38281,0 -0.69531,-0.3125 -0.69531,-0.69922 0,-0.38281 0.3125,-0.69531 0.69531,-0.69531 z m -4.18359,3.2539 c -0.38672,0 -0.69922,-0.3125 -0.69922,-0.69531 0,-0.38672 0.3125,-0.69922 0.69922,-0.69922 0.38281,0 0.69531,0.3125 0.69531,0.69922 0,0.38281 -0.3125,0.69531 -0.69531,0.69531 z m 0,-1.85937 c -0.38672,0 -0.69922,-0.3125 -0.69922,-0.69922 0,-0.38281 0.3125,-0.69531 0.69922,-0.69531 0.38281,0 0.69531,0.3125 0.69531,0.69531 0,0.38672 -0.3125,0.69922 -0.69531,0.69922 z m 2.08984,1.85937 c -0.38281,0 -0.69531,-0.3125 -0.69531,-0.69531 0,-0.38672 0.3125,-0.69922 0.69531,-0.69922 0.38672,0 0.69922,0.3125 0.69922,0.69922 0,0.38281 -0.3125,0.69531 -0.69922,0.69531 z m 0,-1.85937 c -0.38281,0 -0.69531,-0.3125 -0.69531,-0.69922 0,-0.38281 0.3125,-0.69531 0.69531,-0.69531 0.38672,0 0.69922,0.3125 0.69922,0.69531 0,0.38672 -0.3125,0.69922 -0.69922,0.69922 z m 4.1875,1.85937 h -2.09375 c -0.38281,0 -0.69531,-0.3125 -0.69531,-0.69531 0,-0.38672 0.3125,-0.69922 0.69531,-0.69922 h 2.09375 c 0.38672,0 0.69922,0.3125 0.69922,0.69922 0,0.38281 -0.3125,0.69531 -0.69922,0.69531 z m 0,-1.85937 c -0.38281,0 -0.69531,-0.3125 -0.69531,-0.69922 0,-0.38281 0.3125,-0.69531 0.69531,-0.69531 0.38672,0 0.69922,0.3125 0.69922,0.69531 0,0.38672 -0.3125,0.69922 -0.69922,0.69922 z m 4.1875,-1.39453 c 0.38672,0 0.69922,0.3125 0.69922,0.69531 0,0.38672 -0.3125,0.69922 -0.69922,0.69922 -0.38672,0 -0.69922,-0.3125 -0.69922,-0.69922 0,-0.38281 0.3125,-0.69531 0.69922,-0.69531 z m 0,1.85937 c 0.38672,0 0.69922,0.3125 0.69922,0.69922 0,0.38281 -0.3125,0.69531 -0.69922,0.69531 -0.38672,0 -0.69922,-0.3125 -0.69922,-0.69531 0,-0.38672 0.3125,-0.69922 0.69922,-0.69922 z m -2.09375,-1.85937 c 0.38672,0 0.69922,0.3125 0.69922,0.69531 0,0.38672 -0.3125,0.69922 -0.69922,0.69922 -0.38281,0 -0.69922,-0.3125 -0.69922,-0.69922 0,-0.38281 0.31641,-0.69531 0.69922,-0.69531 z m 0,1.85937 c 0.38672,0 0.69922,0.3125 0.69922,0.69922 0,0.38281 -0.3125,0.69531 -0.69922,0.69531 -0.38281,0 -0.69922,-0.3125 -0.69922,-0.69531 0,-0.38672 0.31641,-0.69922 0.69922,-0.69922"
       id="path93" />
    <path
       style="fill:#ffffff;fill-opacity:1;fill-rule:evenodd;stroke:none"
       d="m 119.63281,237.73047 c 0,1.1289 0.91797,2.04687 2.04688,2.04687 h 15.91015 c 1.125,0 2.04688,-0.91797 2.04688,-2.04687 v -0.0469 h -20.00391 v 0.0469"
       id="path95" />
    <path
       style="fill:#ffffff;fill-opacity:1;fill-rule:evenodd;stroke:none"
       d="m 128.23828,242.10547 h 2.78906 v -1.86328 h -2.78906 v 1.86328"
       id="path97" />
    <path
       style="fill:#ffffff;fill-opacity:1;fill-rule:evenodd;stroke:none"
       d="m 137.58594,225.82422 h -15.90625 c -1.12891,0 -2.04688,0.91406 -2.04688,2.04297 v 9.35156 h 20 v -9.35156 c 0,-1.125 -0.91797,-2.04297 -2.04687,-2.04297 z m -10.16016,9.30469 c -0.0625,0 -0.12109,-0.0234 -0.16797,-0.0703 -0.0898,-0.0898 -0.0898,-0.23828 0,-0.32812 l 6.05078,-6.04688 c 0.0898,-0.0937 0.23828,-0.0937 0.32813,0 0.0898,0.0898 0.0898,0.23438 0,0.32813 l -6.04688,6.04687 c -0.0469,0.0469 -0.10546,0.0703 -0.16406,0.0703 z m 8.88281,-6.11719 -3.13672,3.13672 c -0.0469,0.0469 -0.10546,0.0703 -0.16406,0.0703 -0.0586,0 -0.12109,-0.0234 -0.16406,-0.0703 -0.0898,-0.0898 -0.0898,-0.23438 0,-0.32813 l 3.14062,-3.13672 c 0.0898,-0.0937 0.23829,-0.0937 0.32813,0 0.0898,0.0898 0.0898,0.23828 -0.004,0.32813"
       id="path99" />
    <path
       style="fill:#ffffff;fill-opacity:1;fill-rule:evenodd;stroke:none"
       d="m 132.88672,245.59375 c 0,-0.12891 -0.10156,-0.23438 -0.23047,-0.23438 -0.12891,0 -0.23047,0.10547 -0.23047,0.23438 0,0.125 0.10156,0.23047 0.23047,0.23047 0.12891,0 0.23047,-0.10547 0.23047,-0.23047"
       id="path101" />
  </g>
</svg>
