<?xml version="1.0" encoding="UTF-8" standalone="no"?>
<svg
   id="Calque_1"
   viewBox="0 0 243.66 200.03999"
   version="1.1"
   sodipodi:docname="du2-bi.svg"
   width="243.66"
   height="200.03999"
   inkscape:version="1.2 (dc2aedaf03, 2022-05-15)"
   xmlns:inkscape="http://www.inkscape.org/namespaces/inkscape"
   xmlns:sodipodi="http://sodipodi.sourceforge.net/DTD/sodipodi-0.dtd"
   xmlns="http://www.w3.org/2000/svg"
   xmlns:svg="http://www.w3.org/2000/svg">
  <sodipodi:namedview
     id="namedview114"
     pagecolor="#ffffff"
     bordercolor="#000000"
     borderopacity="0.25"
     inkscape:showpageshadow="2"
     inkscape:pageopacity="0.0"
     inkscape:pagecheckerboard="0"
     inkscape:deskcolor="#d1d1d1"
     showgrid="false"
     inkscape:zoom="3.0716981"
     inkscape:cx="118.17568"
     inkscape:cy="98.47973"
     inkscape:window-width="1920"
     inkscape:window-height="1001"
     inkscape:window-x="-9"
     inkscape:window-y="-9"
     inkscape:window-maximized="1"
     inkscape:current-layer="Calque_1" />
  <defs
     id="defs61">
    <style
       id="style59">.cls-1{stroke-width:7.74px;}.cls-1,.cls-2,.cls-3,.cls-4,.cls-5,.cls-6,.cls-7{stroke-miterlimit:10;}.cls-1,.cls-5,.cls-6{stroke:#000;}.cls-1,.cls-5,.cls-6,.cls-7{fill:none;}.cls-2,.cls-4{stroke:#14313e;}.cls-8{fill:#ef7800;}.cls-9{fill:#404042;}.cls-3{fill:#14303e;stroke:#030404;}.cls-3,.cls-7{stroke-width:.25px;}.cls-4{fill:#2d5d6d;}.cls-5{stroke-width:4px;}.cls-7{stroke:#6e888e;}</style>
  </defs>
  <g
     id="g107"
     transform="translate(-8.11,-34.34)">
    <rect
       class="cls-9"
       x="80.910004"
       y="206.73"
       width="119.68"
       height="24.450001"
       id="rect63" />
    <polyline
       class="cls-1"
       points="51.86 203.78 51.86 55.87 230.35 55.87 230.35 206.73"
       id="polyline65" />
    <line
       class="cls-1"
       x1="51.860001"
       y1="135.95"
       x2="230.35001"
       y2="135.95"
       id="line67" />
    <rect
       class="cls-9"
       x="80.910004"
       y="192.19"
       width="119.68"
       height="11.93"
       rx="5.96"
       ry="5.96"
       id="rect69" />
    <polygon
       class="cls-8"
       points="188.67,198.16 194.63,192.19 90.05,192.19 94.37,198.16 "
       id="polygon71" />
    <path
       class="cls-9"
       d="m 77.27,225.74 c -0.07,0.27 -0.33,0.89 -0.65,1.64 -0.02,0.04 -0.05,0.12 -0.13,0.21 -0.13,0.16 -0.3,0.24 -0.45,0.24 -0.82,-0.01 -1.64,-0.03 -2.45,-0.04 -0.14,0 -0.27,0.05 -0.38,0.16 -2.14,2.09 -4.28,4.18 -6.42,6.27 -0.11,0.1 -0.24,0.16 -0.38,0.16 l -2.34,-0.06 c 0,0 -0.04,0 -0.06,0 -0.1,0.01 -0.21,0.02 -0.31,0.02 H 12.23 c -2.28,0 -4.12,-2.2 -4.12,-4.91 V 206 c 0,-2.71 1.85,-4.91 4.12,-4.91 h 50.05 c 0,0 0.08,0 0.12,-0.02 0.04,-0.02 0.08,-0.01 0.13,-0.02 1.31,-0.03 2.61,-0.07 3.92,-0.1 0.16,0 0.32,0.06 0.45,0.17 2.11,1.94 4.23,3.88 6.34,5.82 0.12,0.11 0.27,0.18 0.43,0.18 1.45,0 2.89,0.02 4.34,0.02 0.32,0 0.6,0.26 0.69,0.63 l 0.25,1.16 c 0,0 0,0.05 0.01,0.07 l 0.2,0.78 c 0.03,0.1 0.03,0.2 0.02,0.3 -0.91,8.63 -1.72,14.9 -1.92,15.66 z"
       id="path73" />
    <rect
       class="cls-2"
       x="16.25"
       y="205.75999"
       width="31.209999"
       height="24.4"
       rx="3.5799999"
       ry="3.5799999"
       id="rect75" />
    <rect
       class="cls-9"
       x="17.809999"
       y="207.17"
       width="28.219999"
       height="18.370001"
       rx="2.4400001"
       ry="2.4400001"
       id="rect77" />
    <rect
       class="cls-4"
       x="19.51"
       y="208.25999"
       width="25.059999"
       height="15.27"
       rx="1.73"
       ry="1.73"
       id="rect79" />
    <path
       class="cls-6"
       d="m 62.87,226.47 -5.72,0.1 c -0.75,0.01 -1.4,0.67 -1.48,1.55 0,0.04 0,0.08 0,0.13 -0.02,0.67 0.27,1.32 0.75,1.73 0.25,0.21 0.55,0.31 0.85,0.31 l 5.74,-0.04"
       id="path81" />
    <path
       class="cls-7"
       d="m 62.87,226.47 -5.72,0.1 c -0.75,0.01 -1.4,0.67 -1.48,1.55 0,0.04 0,0.08 0,0.13 -0.02,0.67 0.27,1.32 0.75,1.73 0.25,0.21 0.55,0.31 0.85,0.31 l 5.74,-0.04"
       id="path83" />
    <ellipse
       class="cls-3"
       cx="58.919998"
       cy="215.89"
       rx="7.7800002"
       ry="9.2700005"
       id="ellipse85" />
    <ellipse
       class="cls-9"
       cx="58.919998"
       cy="215.89"
       rx="7.04"
       ry="8.3800001"
       id="ellipse87" />
    <ellipse
       class="cls-4"
       cx="58.919998"
       cy="215.89"
       rx="6.0500002"
       ry="7.1999998"
       id="ellipse89" />
    <ellipse
       class="cls-9"
       cx="58.919998"
       cy="215.89"
       rx="5.1799998"
       ry="6.1700001"
       id="ellipse91" />
    <path
       class="cls-5"
       d="m 147.24,58.54 c 0,0 -3.41,-22.2 14.48,-22.2 17.89,0 16.19,22.2 16.19,22.2 l 0.04,29.41 h -30.97 v 36.86"
       id="path93" />
    <path
       class="cls-5"
       d="m 137.09,58.54 c 0,0 3.41,-22.2 -14.48,-22.2 -17.89,0 -16.19,22.2 -16.19,22.2 l -0.04,29.41 h 30.97 v 36.86"
       id="path95" />
    <polygon
       class="cls-9"
       points="203.99,231.18 203.99,206.42 251.77,194.03 251.77,231.18 "
       id="polygon97" />
    <rect
       class="cls-9"
       x="40.279999"
       y="124.37"
       width="23.16"
       height="23.16"
       id="rect99" />
    <rect
       class="cls-9"
       x="40.279999"
       y="44.279999"
       width="23.16"
       height="23.16"
       id="rect101" />
    <rect
       class="cls-9"
       x="218.77"
       y="124.37"
       width="23.16"
       height="23.16"
       id="rect103" />
    <rect
       class="cls-9"
       x="218.77"
       y="44.279999"
       width="23.16"
       height="23.16"
       id="rect105" />
  </g>
  <path
     class="cls-8"
     d="m 130.86,120.99 h 6.12 c 0.98,0 1.86,-0.62 2.19,-1.55 l 2.44,-6.84 c 0.54,-1.52 -0.58,-3.11 -2.19,-3.11 h -10.99 c -1.61,0 -2.73,1.59 -2.19,3.11 l 2.43,6.84 c 0.33,0.93 1.21,1.55 2.19,1.55 z"
     id="path109" />
  <path
     class="cls-9"
     d="m 141.28,90.47 h -14.71 c -1.67,0 -3.15,1.05 -3.71,2.62 l -6.02,16.89 c -0.91,2.57 0.99,5.26 3.71,5.26 h 26.74 c 2.72,0 4.63,-2.7 3.71,-5.26 l -6.01,-16.89 c -0.56,-1.57 -2.05,-2.62 -3.71,-2.62 z"
     id="path111" />
</svg>
