<?xml version="1.0" encoding="utf-8"?>
<!-- Generator: Adobe Illustrator 15.0.0, SVG Export Plug-In . SVG Version: 6.00 Build 0)  -->
<!DOCTYPE svg PUBLIC "-//W3C//DTD SVG 1.1//EN" "http://www.w3.org/Graphics/SVG/1.1/DTD/svg11.dtd">
<svg version="1.1" id="Layer_1" xmlns="http://www.w3.org/2000/svg" xmlns:xlink="http://www.w3.org/1999/xlink" x="0px" y="0px"
	 width="73.438px" height="94.75px" viewBox="-29.75 -44.75 73.438 94.75" enable-background="new -29.75 -44.75 73.438 94.75"
	 xml:space="preserve">
<g>
	<path fill="#010000" d="M6.752,1.053c-0.863,0-1.668-0.39-2.262-1.106L3.203-1.882C2.34-3.095,2.635-4.104,2.889-4.599
		c0.317-0.615,1.023-1.35,2.584-1.35H8.01c1.513,0,2.197,0.784,2.469,1.252c0.268,0.458,0.61,1.414-0.096,2.652L9.193-0.296
		C8.571,0.577,7.692,1.053,6.752,1.053z"/>
</g>
<rect x="19.074" y="-27.158" transform="matrix(0.5999 0.8001 -0.8001 0.5999 -3.1294 -22.6886)" fill="#FF8200" width="4.093" height="25.37"/>
<g>
	<g>
		<path fill="#404041" d="M32.115,48.275h-56.67c-1.861,0-3.383-1.523-3.383-3.382c0-1.863,1.522-3.383,3.383-3.383h62.591
			c1.86,0,3.382,1.52,3.382,3.383c0,1.858-1.521,3.382-3.382,3.382h-7.612"/>
		<path fill="#404041" d="M38.036,49.299h-62.591c-2.432,0-4.407-1.977-4.407-4.405c0-2.431,1.977-4.406,4.407-4.406h62.591
			c2.431,0,4.405,1.978,4.405,4.406S40.467,49.299,38.036,49.299z M30.424,47.252h7.612c1.301,0,2.358-1.06,2.358-2.358
			c0-1.302-1.062-2.359-2.358-2.359h-62.591c-1.301,0-2.36,1.06-2.36,2.359c0,1.301,1.061,2.358,2.36,2.358H30.424z"/>
	</g>
</g>
<rect x="-23.631" y="-13.626" fill="#B1B3B4" width="1.535" height="53.23"/>
<rect x="-23.631" y="-33.08" fill="#B1B3B4" width="1.535" height="2.538"/>
<rect x="-20.248" y="-13.626" fill="#B1B3B4" width="1.535" height="53.23"/>
<rect x="-20.248" y="-33.08" fill="#B1B3B4" width="1.535" height="2.538"/>
<rect x="4.28" y="2.444" fill="#B1B3B4" width="1.535" height="37.16"/>
<rect x="4.28" y="-33.08" fill="#B1B3B4" width="1.535" height="9.188"/>
<rect x="7.664" y="-33.017" fill="#B1B3B4" width="1.535" height="9.189"/>
<rect x="7.664" y="2.444" fill="#B1B3B4" width="1.535" height="37.16"/>
<rect x="32.195" y="-13.626" fill="#B1B3B4" width="1.535" height="53.23"/>
<rect x="32.195" y="-33.08" fill="#B1B3B4" width="1.535" height="2.538"/>
<rect x="35.577" y="-13.626" fill="#B1B3B4" width="1.535" height="53.23"/>
<rect x="35.577" y="-33.08" fill="#B1B3B4" width="1.535" height="2.538"/>
<path fill="#404041" d="M36.513-30.053h-3.722c-1.968,0-3.566,1.602-3.566,3.569v8.796c0,1.969,1.599,3.569,3.566,3.569h3.722
	c1.969,0,3.57-1.6,3.57-3.569v-8.796C40.083-28.453,38.481-30.053,36.513-30.053z"/>
<g>
	<path fill="#010000" d="M2.896-13.017c1.02,0,1.848-0.828,1.848-1.848v-11.844c0-1.02-0.829-1.848-1.848-1.848H-1.33
		c-1.111,0-1.779,0.45-1.859,0.628l0.006,15.208h-3.07v-15.256c0-2.079,2.115-3.649,4.921-3.649h4.227
		c2.711,0,4.917,2.206,4.917,4.918v11.844c0,2.711-2.206,4.918-4.917,4.918v-3.073H2.896z"/>
</g>
<path fill="#404041" d="M37.19-43.41H18.582H3.189h-26.899c-2.43,0-4.406,1.978-4.406,4.408s1.977,4.407,4.406,4.407H3.191h15.393
	h18.608c2.431,0,4.405-1.977,4.405-4.407S39.623-43.41,37.19-43.41z"/>
<rect x="-20.327" y="-16.52" transform="matrix(0.8 0.6 -0.6 0.8 -10.2118 1.6891)" fill="#FF8200" width="25.375" height="4.094"/>
<path fill="#404041" d="M-19.311-30.053h-3.721c-1.969,0-3.57,1.602-3.57,3.569v8.796c0,1.969,1.603,3.569,3.57,3.569h3.721
	c1.967,0,3.57-1.6,3.57-3.569v-8.796C-15.741-28.453-17.344-30.053-19.311-30.053z"/>
<path fill="#404041" d="M10.97-22.699H2.512c-1.13,0-2.047,0.917-2.047,2.047v15.483c0,1.13,0.917,2.047,2.047,2.047h8.458
	c1.131,0,2.047-0.917,2.047-2.047v-15.483C13.017-21.781,12.102-22.699,10.97-22.699z"/>
<g>
	<g>
		<path fill="#575756" d="M-24.432,25.963c-0.659,0-0.965-0.355-1.086-0.567c-0.166-0.292-0.246-0.583-0.236-0.872
			c0.004-0.15,0.02-0.308,0.045-0.472c0.027-0.164,0.059-0.32,0.104-0.476c0.212-0.914,0.479-2.001,0.786-3.19
			c0.297-1.151,0.709-2.438,1.221-3.822c0.491-1.319,1.1-2.743,1.813-4.23c0.703-1.459,1.582-2.999,2.62-4.571l0.256-0.382
			c0.101-0.16,0.353-0.452,0.862-0.508c0.008,0,0.018,0,0.028,0c0.406,0,0.697,0.132,0.971,0.392l0.16,0.152l0.08,0.4
			c0.002,0.256-0.076,0.516-0.234,0.766c-0.364,0.91-0.773,1.853-1.174,2.721c-0.416,0.897-0.818,1.749-1.199,2.526l-1.02,2.093
			c-0.285,0.578-0.488,1.047-0.606,1.401c-0.063,0.176-0.124,0.352-0.182,0.528l0.787-1.275c0.489-0.799,0.915-1.479,1.326-2.127
			c0.422-0.664,0.782-1.211,1.104-1.687c1.189-1.659,2.311-3.182,3.35-4.538c1.02-1.337,1.976-2.499,2.842-3.45
			c0.874-0.963,1.699-1.735,2.447-2.296c0.817-0.612,1.597-0.958,2.32-1.023c0.11-0.01,0.217-0.016,0.323-0.016
			c0.535,0,0.977,0.142,1.316,0.426C-5.013,2.2-4.779,2.648-4.734,3.162c0.043,0.472-0.029,0.961-0.211,1.447
			C-5.093,5.006-5.248,5.41-5.404,5.794l-1.161,2.883c-0.332,0.823-0.68,1.675-1.04,2.542c0.227-0.256,0.456-0.506,0.688-0.75
			c0.611-0.642,1.24-1.222,1.871-1.713c0.692-0.54,1.358-0.843,1.983-0.914c0.111-0.014,0.223-0.022,0.334-0.022
			c0.436,0,0.835,0.108,1.189,0.316c0.501,0.312,0.793,0.776,0.855,1.343c0.059,0.58,0.031,1.191-0.088,1.823l-0.821,4.35
			c-0.086,0.496-0.152,0.965-0.193,1.391c-0.039,0.392-0.045,0.758-0.012,1.08c0.074,0.777,0.246,1.443,0.51,1.983
			c0.246,0.498,0.709,0.954,1.385,1.355c0.283,0.152,0.447,0.377,0.473,0.664c0.043,0.39-0.202,0.843-0.759,0.931
			c-0.025,0-0.048,0-0.07,0c-0.25,0-0.395-0.044-0.564-0.116l-0.31-0.132c-1.135-0.638-1.932-1.383-2.405-2.247
			c-0.453-0.819-0.725-1.717-0.809-2.661c-0.039-0.423-0.043-0.909-0.014-1.453c0.024-0.516,0.075-1.059,0.143-1.603
			c0.066-0.542,0.15-1.08,0.248-1.599l0.256-1.329l0.289-1.803c-0.144,0.092-0.287,0.194-0.426,0.302
			c-0.262,0.208-0.526,0.428-0.784,0.652c-0.264,0.236-0.479,0.43-0.649,0.6c-1.093,1.109-2.094,2.321-2.974,3.598
			c-0.911,1.323-1.762,2.794-2.534,4.37l-0.559,0.978c-0.008,0.082-0.086,0.234-0.187,0.36c-0.213,0.278-0.565,0.366-0.915,0.414
			c-0.995-0.032-1.322-0.58-1.341-1.04c-0.032-0.503,0.064-1.135,0.275-1.879c0.188-0.669,0.434-1.391,0.729-2.151l1.562-3.94
			c0.495-1.321,1.021-2.637,1.557-3.896c0.522-1.229,1.094-2.486,1.691-3.738c0.153-0.304,0.278-0.604,0.381-0.897
			c-0.17,0.106-0.34,0.22-0.508,0.344C-8.378,4.395-8.646,4.615-8.9,4.845c-0.262,0.238-0.482,0.448-0.656,0.618
			c-0.51,0.5-1.034,1.059-1.561,1.663c-0.54,0.622-1.07,1.255-1.572,1.897c-0.52,0.658-1.023,1.321-1.497,1.973
			c-0.484,0.664-0.949,1.312-1.379,1.919c-1.324,1.875-2.596,3.77-3.773,5.633c-1.228,1.935-2.389,4.022-3.446,6.197
			c-0.095,0.188-0.215,0.375-0.381,0.596c-0.332,0.432-0.699,0.563-0.951,0.6C-24.219,25.959-24.332,25.963-24.432,25.963z"/>
		<path fill="#FFFFFF" d="M-6.732,1.952c0.414,0,0.744,0.104,0.986,0.308c0.295,0.248,0.461,0.564,0.494,0.948
			c0.035,0.396-0.027,0.81-0.18,1.225c-0.146,0.394-0.299,0.79-0.455,1.171c-0.389,0.961-0.773,1.921-1.161,2.88
			c-0.385,0.962-0.792,1.955-1.214,2.958l-1.088,2.739c0.301-0.396,0.63-0.82,0.987-1.271c0.579-0.731,1.189-1.435,1.809-2.087
			c0.612-0.644,1.226-1.201,1.816-1.663c0.614-0.476,1.193-0.748,1.725-0.81c0.095-0.012,0.187-0.018,0.277-0.018
			c0.346,0,0.657,0.086,0.924,0.244C-1.451,8.8-1.246,9.122-1.201,9.538c0.055,0.528,0.026,1.091-0.082,1.669
			c-0.109,0.562-0.215,1.138-0.324,1.715l-0.497,2.639c-0.088,0.516-0.158,0.995-0.201,1.435c-0.043,0.428-0.047,0.824-0.012,1.175
			c0.079,0.832,0.266,1.563,0.561,2.159c0.286,0.588,0.818,1.116,1.582,1.571c0.07,0.04,0.211,0.112,0.225,0.272
			c0.019,0.16-0.078,0.34-0.33,0.38c-0.014,0.004-0.03,0.004-0.045,0.004c-0.073,0-0.164-0.024-0.317-0.088
			c-0.129-0.052-0.225-0.096-0.291-0.126c-1.017-0.57-1.742-1.246-2.169-2.025c-0.418-0.756-0.669-1.583-0.747-2.459
			c-0.037-0.401-0.041-0.867-0.013-1.383c0.025-0.504,0.074-1.034,0.14-1.567c0.065-0.53,0.145-1.06,0.241-1.567
			c0.092-0.503,0.178-0.947,0.254-1.325l0.381-2.378C-2.85,9.534-2.841,9.436-2.814,9.344c0.008-0.024,0.01-0.052,0.012-0.082
			c-0.004-0.006-0.006-0.006-0.006-0.006c-0.137,0.024-0.34,0.096-0.583,0.232C-3.654,9.634-3.92,9.81-4.178,10.012
			c-0.27,0.214-0.541,0.44-0.807,0.672c-0.276,0.248-0.498,0.448-0.673,0.62c-1.114,1.133-2.137,2.367-3.036,3.674
			c-0.925,1.343-1.791,2.838-2.57,4.436l-0.543,0.946c-0.035,0.12-0.08,0.216-0.139,0.292c-0.09,0.12-0.256,0.184-0.59,0.23
			c-0.01,0-0.023,0-0.033,0c-0.004,0-0.01,0-0.016,0c-0.625-0.026-0.703-0.397-0.711-0.554c-0.016-0.452,0.076-1.027,0.27-1.719
			c0.185-0.66,0.426-1.363,0.712-2.103c0.283-0.724,0.561-1.431,0.84-2.131c0.274-0.692,0.512-1.295,0.721-1.803
			c0.5-1.327,1.021-2.639,1.553-3.888c0.52-1.222,1.087-2.475,1.683-3.716c0.184-0.37,0.336-0.733,0.45-1.095
			c0.092-0.292,0.126-0.588,0.101-0.879c-0.175,0.036-0.369,0.116-0.58,0.23c-0.289,0.16-0.578,0.348-0.863,0.558
			c-0.289,0.214-0.57,0.448-0.836,0.688c-0.268,0.24-0.495,0.458-0.673,0.632c-0.518,0.507-1.052,1.075-1.586,1.691
			c-0.546,0.627-1.08,1.271-1.588,1.917c-0.524,0.662-1.032,1.333-1.506,1.989c-0.486,0.664-0.953,1.313-1.384,1.921
			c-1.318,1.865-2.592,3.766-3.789,5.659c-1.244,1.963-2.413,4.066-3.473,6.245c-0.08,0.156-0.187,0.32-0.33,0.512
			c-0.176,0.232-0.383,0.37-0.61,0.4c-0.09,0.016-0.172,0.024-0.246,0.024c-0.379,0-0.557-0.164-0.645-0.314
			c-0.117-0.206-0.172-0.406-0.168-0.598c0.004-0.132,0.016-0.27,0.039-0.412c0.022-0.136,0.051-0.276,0.09-0.412
			c0.219-0.936,0.484-2.019,0.791-3.203c0.299-1.155,0.704-2.422,1.203-3.774c0.489-1.315,1.092-2.718,1.795-4.186
			c0.688-1.431,1.557-2.951,2.585-4.514c0.115-0.168,0.199-0.296,0.256-0.384c0.068-0.108,0.208-0.246,0.488-0.276
			c0.018-0.004,0.039-0.004,0.057-0.004c0.172,0,0.353,0.09,0.533,0.26c0.049,0.044,0.08,0.11,0.08,0.18
			c0.002,0.162-0.05,0.328-0.154,0.492c-0.403,0.981-0.811,1.919-1.208,2.781c-0.414,0.894-0.814,1.741-1.193,2.517
			c-0.385,0.786-0.725,1.483-1.021,2.091c-0.295,0.604-0.508,1.093-0.63,1.463c-0.324,0.903-0.604,1.823-0.838,2.734
			c-0.125,0.486-0.258,0.974-0.401,1.455c0.135-0.22,0.26-0.423,0.379-0.624c0.342-0.563,0.729-1.195,1.159-1.897
			c0.428-0.688,0.857-1.389,1.293-2.097c0.42-0.688,0.844-1.363,1.255-2.009c0.42-0.662,0.778-1.205,1.095-1.677
			c1.177-1.641,2.296-3.158,3.333-4.514c0.999-1.309,1.946-2.458,2.813-3.414c0.852-0.938,1.651-1.687,2.375-2.231
			c0.74-0.556,1.432-0.866,2.06-0.923C-6.91,1.956-6.82,1.952-6.732,1.952 M-6.732,0.929c-0.121,0-0.246,0.006-0.377,0.02
			C-7.92,1.022-8.787,1.4-9.68,2.072c-0.776,0.578-1.623,1.375-2.52,2.36c-0.875,0.961-1.84,2.133-2.868,3.48
			c-0.852,1.115-1.759,2.338-2.701,3.638c0.004-0.012,0.009-0.02,0.013-0.03c0.395-0.859,0.797-1.781,1.197-2.756
			c0.174-0.304,0.262-0.636,0.258-0.964c0-0.335-0.148-0.671-0.402-0.911c-0.469-0.444-0.929-0.54-1.234-0.54h-0.059l-0.117,0.012
			c-0.521,0.056-0.977,0.332-1.238,0.751c-0.045,0.072-0.127,0.194-0.233,0.352c-1.059,1.607-1.951,3.164-2.662,4.644
			c-0.721,1.503-1.336,2.944-1.834,4.273c-0.52,1.405-0.936,2.707-1.236,3.876c-0.307,1.191-0.573,2.283-0.795,3.226
			c-0.037,0.126-0.076,0.3-0.105,0.476c-0.031,0.196-0.047,0.375-0.053,0.552c-0.01,0.38,0.09,0.759,0.301,1.133
			c0.307,0.531,0.866,0.829,1.536,0.829c0.129,0,0.27-0.008,0.425-0.037c0.307-0.042,0.811-0.219,1.245-0.786
			c0.193-0.254,0.326-0.468,0.43-0.671c1.057-2.175,2.207-4.242,3.425-6.161c1.174-1.857,2.439-3.746,3.758-5.615
			c0.43-0.604,0.893-1.245,1.375-1.909c0.469-0.644,0.968-1.307,1.484-1.955c0.499-0.638,1.023-1.266,1.557-1.883
			c0.522-0.6,1.039-1.149,1.531-1.631c0.078-0.076,0.166-0.16,0.262-0.252c-0.422,0.907-0.823,1.813-1.204,2.705
			c-0.532,1.251-1.063,2.573-1.572,3.928c-0.192,0.472-0.424,1.06-0.688,1.727l-0.863,2.193c-0.307,0.793-0.557,1.531-0.746,2.203
			c-0.227,0.801-0.327,1.465-0.307,2.029c0.033,0.739,0.567,1.495,1.689,1.543h0.043h0.074l0.051-0.002l0.067-0.008
			c0.434-0.064,0.926-0.186,1.257-0.622c0.104-0.13,0.194-0.298,0.266-0.496l0.492-0.855c0.792-1.611,1.631-3.061,2.528-4.366
			c0.861-1.249,1.846-2.438,2.922-3.534c0.156-0.152,0.365-0.342,0.626-0.576c0.051-0.044,0.102-0.088,0.156-0.132l-0.086,0.542
			c-0.07,0.346-0.156,0.793-0.25,1.305c-0.099,0.523-0.185,1.073-0.252,1.627c-0.07,0.556-0.121,1.111-0.148,1.641
			c-0.028,0.562-0.024,1.074,0.017,1.521c0.09,1.015,0.383,1.981,0.87,2.862c0.518,0.945,1.382,1.761,2.564,2.427
			c0.15,0.072,0.256,0.118,0.398,0.176c0.217,0.088,0.446,0.168,0.711,0.168h0.074l0.119-0.016c0.773-0.122,1.285-0.768,1.201-1.505
			c-0.029-0.302-0.184-0.748-0.751-1.058c-0.545-0.324-0.958-0.72-1.152-1.122c-0.239-0.485-0.393-1.089-0.462-1.805
			c-0.027-0.288-0.023-0.616,0.012-0.979c0.041-0.416,0.106-0.875,0.19-1.363l0.496-2.621l0.324-1.709
			c0.129-0.684,0.159-1.345,0.094-1.971c-0.08-0.736-0.457-1.332-1.089-1.723c-0.448-0.268-0.936-0.4-1.465-0.4
			c-0.129,0-0.262,0.008-0.4,0.026c-0.709,0.08-1.463,0.421-2.227,1.013c-0.266,0.212-0.53,0.43-0.792,0.664
			c0.02-0.048,0.041-0.1,0.059-0.148l0.418-1.037l0.741-1.841c0.158-0.39,0.315-0.797,0.464-1.199
			c0.209-0.56,0.289-1.122,0.24-1.671c-0.056-0.65-0.352-1.22-0.854-1.639C-5.523,1.113-6.076,0.929-6.732,0.929L-6.732,0.929z"/>
	</g>
	<g>
		<path fill="#575756" d="M4.51,37.721c-0.527,0-1.042-0.044-1.531-0.132c-2.158-0.396-3.857-1.603-4.786-3.4
			C-4.11,29.731-2.209,25.56,3.842,21.79c5.005-3.118,8.252-3.54,12.746-4.126l1.175-0.156c0.176-1.411,0.368-2.663,0.574-3.734
			l-1.253,1.229c-0.316,0.318-0.66,0.63-1.023,0.922c-0.372,0.308-0.764,0.58-1.16,0.812c-0.448,0.264-0.891,0.428-1.321,0.494
			c-0.11,0.014-0.202,0.022-0.302,0.022c-0.496,0-0.967-0.18-1.395-0.532c-0.336-0.272-0.58-0.568-0.732-0.89
			c-0.052,0.046-0.108,0.096-0.164,0.146c-0.376,0.324-0.77,0.628-1.16,0.897c-0.492,0.332-0.899,0.51-1.287,0.562
			c-0.232,0.034-0.454,0.05-0.664,0.05c-0.259,0-0.503-0.028-0.724-0.08c-0.443-0.104-0.814-0.298-1.107-0.578
			c-0.064-0.058-0.123-0.12-0.181-0.18c-0.157,0.214-0.329,0.436-0.512,0.658c-0.28,0.344-0.588,0.667-0.912,0.973
			c-0.432,0.4-0.838,0.626-1.243,0.688c-0.096,0.012-0.191,0.02-0.283,0.02c-0.475,0-0.939-0.176-1.381-0.523
			C1.02,18.06,0.711,17.55,0.637,16.988c-0.008-0.596,0.039-1.054,0.131-1.447c0.096-0.408,0.248-0.796,0.45-1.149
			c0.191-0.334,0.429-0.668,0.713-0.992c0.254-0.29,0.555-0.614,0.888-0.963c0.213-0.21,0.461-0.404,0.758-0.605
			c0.35-0.238,0.749-0.388,1.186-0.448c0.11-0.016,0.215-0.02,0.321-0.02c0.385,0,0.757,0.088,1.111,0.268
			c0.68,0.332,0.895,0.84,0.957,1.204c0.051,0.315,0.014,0.655-0.109,1.015c-0.033,0.096-0.07,0.184-0.108,0.264
			c0.198,0.124,0.348,0.306,0.434,0.54c0.078,0.2,0.153,0.438,0.225,0.694c0.031,0.114,0.082,0.198,0.168,0.282
			c0.392-0.06,0.656-0.164,0.944-0.336c0.335-0.202,0.651-0.428,0.943-0.68c0.304-0.264,0.587-0.52,0.841-0.764l0.562-0.54
			c0.08-0.068,0.164-0.166,0.268-0.286c0.248-0.602,0.652-1.222,1.151-1.765c0.482-0.534,1.014-0.983,1.575-1.335
			c0.592-0.37,1.156-0.592,1.683-0.664c0.196-0.024,0.39-0.036,0.588-0.036c0.481,0,0.976,0.07,1.467,0.212
			c0.56,0.156,1.027,0.382,1.397,0.664c0.18-0.188,0.326-0.355,0.436-0.494c0.18-0.354,0.508-0.819,1.189-0.819
			c0.116,0,0.236,0.014,0.37,0.042C21.566,8.913,21.86,9.144,22,9.484c0.2,0.484,0.018,1.048-0.2,1.383
			c-0.684,1.043-1.157,3.612-1.577,6.279c1.385-0.234,2.907-0.649,4.326-1.166c-0.27-0.22-0.5-0.481-0.693-0.775
			c-0.226-0.348-0.39-0.744-0.486-1.166c-0.078-0.382-0.11-0.801-0.094-1.257c0.014-0.452,0.068-0.887,0.16-1.297
			c0.1-0.438,0.244-0.823,0.43-1.149c0.344-0.576,0.776-0.755,1.078-0.805h0.1l0.292,0.038c0.272,0.076,0.51,0.25,0.652,0.5
			l0.063,0.108l0.036,0.232c0.022,0.33,0.006,0.686-0.048,1.043l-0.147,0.931c-0.049,0.288-0.076,0.596-0.088,0.902
			c-0.009,0.254,0.02,0.554,0.084,0.883l0.071,0.102c0.288,0.55,0.565,0.62,0.78,0.62c0.142-0.02,0.256-0.04,0.348-0.06v-0.144
			h0.382c0.241-0.14,0.47-0.282,0.689-0.42c0.531-0.386,0.827-0.6,1.063-0.764c1.043-0.826,1.831-1.723,2.593-2.589
			c0.218-0.251,0.426-0.481,0.629-0.708c-0.06-0.11-0.115-0.214-0.168-0.32c-0.287-0.554-0.463-1.062-0.525-1.497
			c-0.092-0.68,0.214-1.263,0.821-1.563c0.3-0.148,0.652-0.236,1.076-0.272c0.012,0,0.02,0,0.031,0c0.79,0,1.136,0.284,1.319,0.52
			c0.316,0.416,0.466,0.844,0.448,1.277c-0.021,0.328-0.07,0.642-0.16,0.936c-0.06,0.218-0.107,0.444-0.149,0.66l0.386,0.704
			c0.107,0.198,0.188,0.378,0.243,0.542l0.368,0.795c0.12,0.266,0.212,0.496,0.282,0.696c0.205-0.276,0.43-0.666,0.577-1.14
			c0.364-1.164,0.563-2.005,0.668-2.822l0.012-0.088c0.028-0.28,0.2-0.527,0.47-0.664c0.154-0.076,0.304-0.112,0.454-0.112
			c0.275,0,0.533,0.126,0.705,0.338c0.269,0.336,0.33,0.76,0.178,1.164l-0.096,0.368c-0.352,1.309-0.695,2.563-0.81,2.87
			c-0.172,0.466-0.384,0.898-0.632,1.28c-0.27,0.41-0.629,0.781-1.065,1.101l-0.199,0.164c-0.04,0.228-0.084,0.434-0.145,0.671
			c-0.071,0.304-0.203,0.638-0.384,0.976c-0.188,0.352-0.439,0.694-0.739,1.016c-0.324,0.344-0.748,0.651-1.268,0.925
			c-0.781,0.41-1.547,0.674-2.274,0.794c-0.516,0.08-0.991,0.124-1.43,0.124c-0.176,0-0.354-0.008-0.516-0.022
			c-0.6-0.054-1.073-0.15-1.457-0.296c-0.502-0.198-0.768-0.37-0.926-0.605c-0.252-0.378-0.315-0.972,0.252-1.511
			c0.254-0.242,0.55-0.452,0.874-0.616c0.334-0.176,0.755-0.364,1.247-0.558c0.472-0.18,0.957-0.376,1.469-0.582l1.573-0.642
			c0.508-0.21,0.994-0.43,1.447-0.668c-0.02-0.382-0.147-0.746-0.363-1.165c-0.156-0.3-0.328-0.614-0.516-0.936
			c-0.987,1.405-2.493,3.11-4.554,4.35c-2.211,1.323-4.936,2.187-9.063,2.864l-0.122,0.86c-0.558,3.92-1.306,9.139-6.087,13.451
			C9.883,37.001,6.596,37.721,4.51,37.721z M17.317,19.646C11.768,20.37,8.629,21.158,4.693,23.9
			c-4.27,2.979-6.408,5.653-3.889,9.772c0.622,1.018,1.512,1.623,2.648,1.8c0.244,0.037,0.493,0.054,0.749,0.054
			c2.533,0,5.627-1.695,7.57-3.378c2.872-2.493,5.043-7.252,5.743-12.532L17.317,19.646z M5.086,13.758
			c-0.217,0.26-0.428,0.556-0.629,0.89c-0.243,0.41-0.463,0.83-0.648,1.241c-0.125,0.282-0.203,0.492-0.25,0.649
			c0.179-0.176,0.342-0.364,0.49-0.562c0.219-0.294,0.412-0.57,0.575-0.83c0.213-0.336,0.392-0.563,0.562-0.724
			c0.012-0.014,0.024-0.028,0.036-0.042c-0.084-0.112-0.129-0.236-0.147-0.36L5.053,13.87L5.086,13.758z M16.893,11.219
			c-0.098,0-0.198,0.008-0.294,0.022c-0.386,0.05-0.784,0.226-1.175,0.514c-0.448,0.328-0.832,0.72-1.144,1.155
			c-0.335,0.46-0.591,0.943-0.759,1.439c-0.1,0.284-0.156,0.54-0.172,0.768l0.382-0.194c0.377-0.238,0.852-0.582,1.383-1.001
			c0.53-0.42,1.026-0.848,1.485-1.268c0.444-0.402,0.813-0.779,1.107-1.107c0.04-0.044,0.076-0.084,0.104-0.12
			c-0.044-0.024-0.096-0.048-0.16-0.072C17.405,11.267,17.151,11.219,16.893,11.219z"/>
		<path fill="#FFFFFF" d="M33.83,7.06c0.336,0,0.592,0.112,0.76,0.328c0.239,0.314,0.355,0.632,0.34,0.941
			c-0.013,0.272-0.055,0.544-0.134,0.812c-0.068,0.238-0.118,0.476-0.164,0.704c-0.026,0.176,0.01,0.352,0.13,0.534
			c0.12,0.2,0.222,0.374,0.308,0.526c0.088,0.16,0.158,0.308,0.204,0.45l0.39,0.85c0.222,0.5,0.352,0.872,0.386,1.127
			c0.03,0.224,0.072,0.282,0.072,0.284c0.004,0.004,0.008,0.006,0.012,0.008c0.014-0.004,0.034-0.012,0.06-0.028
			c0.33-0.172,0.972-0.896,1.283-1.899c0.368-1.179,0.576-2.053,0.688-2.906c0-0.022,0.008-0.044,0.016-0.064
			c-0.008-0.1,0.04-0.22,0.189-0.298c0.08-0.038,0.154-0.054,0.223-0.054c0.132,0,0.237,0.064,0.304,0.146
			c0.151,0.19,0.188,0.424,0.098,0.66c-0.065,0.242-0.75,2.827-0.905,3.242c-0.16,0.44-0.356,0.833-0.58,1.177
			c-0.233,0.358-0.552,0.684-0.939,0.97c-0.134,0.106-0.244,0.198-0.33,0.272c-0.021,0.018-0.052,0.052-0.058,0.15
			c-0.034,0.216-0.082,0.436-0.147,0.7c-0.064,0.27-0.177,0.556-0.34,0.861c-0.164,0.306-0.384,0.614-0.66,0.906
			c-0.283,0.3-0.661,0.576-1.131,0.823c-0.726,0.378-1.436,0.63-2.119,0.738c-0.483,0.076-0.936,0.118-1.35,0.118
			c-0.162,0-0.323-0.008-0.476-0.02c-0.533-0.048-0.974-0.132-1.317-0.264c-0.384-0.148-0.59-0.276-0.682-0.412
			c-0.084-0.126-0.233-0.462,0.182-0.855c0.216-0.21,0.473-0.388,0.752-0.532c0.324-0.17,0.731-0.35,1.205-0.538
			c0.47-0.182,0.958-0.377,1.474-0.585s1.043-0.42,1.575-0.64c0.52-0.214,1.023-0.446,1.489-0.688c0.239-0.124,0.328-0.306,0.29-0.6
			c-0.044-0.366-0.194-0.79-0.432-1.255c-0.257-0.488-0.552-1.008-0.884-1.547c-0.022-0.04-0.044-0.076-0.064-0.112
			c-0.835,1.311-2.45,3.43-4.841,4.867c-2.186,1.31-4.95,2.177-9.248,2.856c-0.01,0.068-0.022,0.136-0.036,0.206l-0.02,0.166
			c-0.048,0.304-0.092,0.624-0.138,0.953c-0.534,3.742-1.257,8.86-5.911,13.055c-3.644,3.28-6.772,4.014-8.841,4.014
			c-0.561,0-1.044-0.052-1.439-0.126c-1.998-0.365-3.568-1.477-4.423-3.132c-2.157-4.176-0.321-8.124,5.465-11.726
			c4.91-3.06,8.108-3.476,12.54-4.052c0.512-0.066,1.033-0.134,1.573-0.208c0.335-2.836,0.688-4.602,0.981-5.747l-1.666,1.615
			c-0.251,0.244-0.527,0.512-0.819,0.81c-0.304,0.302-0.636,0.602-0.979,0.884c-0.356,0.294-0.724,0.55-1.095,0.768
			c-0.394,0.232-0.776,0.378-1.144,0.432c-0.076,0.01-0.148,0.014-0.224,0.014c-0.381,0-0.733-0.136-1.071-0.412
			c-0.392-0.32-0.627-0.671-0.7-1.047c-0.028-0.14-0.044-0.284-0.048-0.432c-0.248,0.242-0.512,0.49-0.806,0.742
			c-0.362,0.314-0.742,0.605-1.117,0.865c-0.412,0.28-0.758,0.436-1.067,0.476c-0.21,0.032-0.408,0.046-0.592,0.046
			c-0.218,0-0.421-0.022-0.605-0.066c-0.354-0.084-0.649-0.236-0.872-0.45c-0.213-0.2-0.377-0.406-0.485-0.62
			c-0.015-0.022-0.025-0.042-0.035-0.06c-0.051,0.052-0.127,0.14-0.223,0.282c-0.205,0.296-0.439,0.604-0.699,0.923
			c-0.266,0.324-0.559,0.632-0.868,0.924c-0.35,0.326-0.667,0.505-0.968,0.552c-0.069,0.012-0.137,0.016-0.205,0.016
			c-0.358,0-0.715-0.14-1.066-0.414c-0.411-0.324-0.648-0.709-0.704-1.137c-0.002-0.012-0.002-0.02-0.002-0.032
			c-0.002-0.459,0.039-0.875,0.125-1.233c0.086-0.362,0.219-0.706,0.397-1.015c0.174-0.302,0.393-0.61,0.652-0.906
			c0.25-0.286,0.547-0.604,0.875-0.947c0.18-0.178,0.407-0.354,0.676-0.538c0.286-0.194,0.612-0.313,0.963-0.362
			c0.086-0.012,0.17-0.016,0.254-0.016c0.301,0,0.596,0.068,0.88,0.212c0.395,0.194,0.623,0.476,0.682,0.832
			c0.037,0.226,0.006,0.487-0.088,0.763c-0.043,0.128-0.172,0.508-0.486,0.554c-0.036,0.004-0.069,0.006-0.1,0.006
			c-0.33,0-0.387-0.24-0.393-0.296c-0.01-0.062,0-0.126,0.029-0.184l0.038-0.412c-0.016-0.092-0.02-0.176-0.016-0.256
			c0-0.052-0.002-0.116-0.012-0.184c-0.004-0.02-0.012-0.044-0.035-0.08c-0.008,0-0.02-0.004-0.035-0.004
			c-0.016,0-0.035,0-0.059,0.004c-0.201,0.028-0.426,0.18-0.671,0.45c-0.278,0.31-0.547,0.677-0.799,1.093
			c-0.256,0.432-0.487,0.87-0.68,1.301C3.156,16.099,3.042,16.446,3,16.708c-0.006,0.036-0.018,0.068-0.037,0.096
			c-0.026,0.044-0.081,0.176-0.028,0.562c0.008,0.05,0.016,0.086,0.024,0.106c0.281-0.048,0.531-0.176,0.771-0.392
			c0.271-0.24,0.519-0.512,0.736-0.808c0.225-0.3,0.426-0.59,0.596-0.859c0.184-0.292,0.34-0.494,0.475-0.62
			c0.172-0.202,0.36-0.318,0.551-0.344c0.061-0.008,0.121-0.012,0.172-0.012c0.422,0,0.579,0.236,0.639,0.392
			c0.073,0.192,0.143,0.414,0.213,0.652c0.053,0.198,0.151,0.362,0.299,0.508c0.086,0.084,0.221,0.128,0.402,0.128
			c0.068,0,0.136-0.004,0.214-0.016c0.286-0.04,0.604-0.166,0.951-0.376c0.362-0.214,0.706-0.461,1.018-0.731
			c0.31-0.268,0.6-0.532,0.86-0.78c0.258-0.251,0.443-0.428,0.556-0.532c0.084-0.076,0.186-0.188,0.308-0.328
			c0.008-0.012,0.016-0.016,0.024-0.028c0.004-0.008,0.008-0.016,0.01-0.026c0.271-0.622,0.64-1.193,1.105-1.701
			c0.454-0.5,0.947-0.919,1.471-1.248C14.86,10.02,15.36,9.82,15.808,9.76c0.172-0.02,0.344-0.032,0.52-0.032
			c0.432,0,0.876,0.064,1.326,0.196c0.646,0.18,1.135,0.452,1.465,0.795c0.028,0.032,0.052,0.048,0.064,0.06
			c0.04-0.02,0.144-0.084,0.34-0.29c0.212-0.222,0.384-0.414,0.508-0.574l0.02-0.028c0.204-0.396,0.408-0.596,0.766-0.596
			c0.08,0,0.168,0.01,0.266,0.032c0.284,0.058,0.403,0.222,0.456,0.348c0.118,0.282,0.008,0.658-0.156,0.91
			c-0.78,1.193-1.275,4.02-1.757,7.174c0.21-0.03,0.42-0.064,0.634-0.1c1.691-0.27,3.742-0.874,5.461-1.579
			c-0.234-0.092-0.452-0.212-0.654-0.364c-0.302-0.216-0.562-0.488-0.761-0.796c-0.204-0.308-0.338-0.644-0.418-1
			c-0.066-0.32-0.096-0.701-0.082-1.129c0.012-0.416,0.062-0.821,0.148-1.199c0.088-0.386,0.212-0.726,0.374-1.005
			c0.194-0.32,0.432-0.51,0.717-0.556c0.018-0.004,0.034-0.008,0.048-0.008c0.024,0,0.044,0.004,0.064,0.014
			c0.198,0.058,0.33,0.15,0.404,0.284c0.018,0.038,0.03,0.07,0.032,0.11c0.023,0.318,0.004,0.64-0.044,0.943
			c-0.044,0.296-0.092,0.6-0.146,0.919c-0.052,0.308-0.082,0.636-0.098,0.968c-0.008,0.315,0.028,0.651,0.098,1.003l0.118,0.232
			c0.313,0.602,0.72,0.899,1.235,0.899c0.088,0,0.184-0.008,0.279-0.028c0.192-0.032,0.384-0.096,0.58-0.178
			c0,0,0-0.002,0.006-0.002c0.294-0.166,0.57-0.332,0.83-0.5c0.048-0.038,0.096-0.072,0.151-0.11c0.392-0.286,0.691-0.5,0.926-0.664
			c1.115-0.883,1.921-1.801,2.708-2.696c0.282-0.326,0.561-0.636,0.844-0.944c-0.12-0.214-0.233-0.428-0.34-0.631
			c-0.256-0.496-0.415-0.946-0.468-1.332c-0.063-0.466,0.124-0.828,0.54-1.031c0.244-0.124,0.542-0.196,0.892-0.222
			C33.734,7.062,33.784,7.06,33.83,7.06 M33.878,8.94c0.008-0.044,0.008-0.088,0.016-0.136c0.013-0.148,0.005-0.31-0.016-0.484
			c-0.014-0.136-0.06-0.25-0.128-0.348c0,0-0.004,0-0.008,0h-0.004c-0.072,0-0.108,0.012-0.122,0.018
			c-0.038,0.02-0.038,0.024-0.038,0.054c0.004,0.104,0.026,0.226,0.068,0.36c0.05,0.148,0.111,0.298,0.188,0.452
			C33.854,8.884,33.866,8.908,33.878,8.94 M13.051,15.825c0.026-0.008,0.118-0.036,0.298-0.136l0.611-0.304
			c0.432-0.271,0.919-0.629,1.469-1.061c0.54-0.428,1.047-0.862,1.513-1.292c0.458-0.416,0.84-0.806,1.146-1.146
			c0.27-0.302,0.344-0.436,0.366-0.479c-0.072-0.226-0.278-0.4-0.627-0.532c-0.3-0.108-0.614-0.168-0.934-0.168
			c-0.122,0-0.24,0.01-0.36,0.026c-0.47,0.062-0.943,0.266-1.409,0.608c-0.484,0.357-0.912,0.781-1.259,1.273
			c-0.36,0.496-0.64,1.021-0.826,1.571c-0.186,0.52-0.24,0.979-0.174,1.363C12.977,15.792,13.051,15.825,13.051,15.825
			 M30.64,17.892c0.146,0,0.3-0.006,0.456-0.02c0.371-0.032,0.731-0.092,1.079-0.18c0.34-0.08,0.59-0.164,0.737-0.242
			c0.2-0.106,0.43-0.258,0.688-0.461c0.26-0.206,0.497-0.42,0.709-0.644c0.204-0.216,0.364-0.432,0.472-0.64
			c0.038-0.076,0.061-0.14,0.068-0.192c-0.012,0.004-0.028,0.01-0.044,0.014c-0.166,0.058-0.362,0.138-0.582,0.232
			c-0.222,0.096-0.46,0.214-0.703,0.34l-0.662,0.344c-0.684,0.352-1.347,0.646-1.984,0.881c-0.462,0.166-0.84,0.318-1.134,0.452
			c0.084,0.04,0.196,0.064,0.319,0.08C30.244,17.879,30.438,17.892,30.64,17.892 M4.205,36.038c2.651,0,5.862-1.735,7.905-3.502
			c3.083-2.679,5.379-7.852,5.993-13.519c-0.276,0.042-0.564,0.078-0.855,0.118c-5.629,0.738-8.821,1.54-12.844,4.346
			c-4.391,3.063-6.754,6.011-4.032,10.459c0.704,1.151,1.715,1.835,3.008,2.036C3.645,36.021,3.922,36.038,4.205,36.038
			 M33.83,6.036L33.83,6.036c-0.074,0-0.15,0.004-0.226,0.01c-0.49,0.04-0.902,0.146-1.266,0.326
			c-0.812,0.394-1.222,1.178-1.096,2.089c0.07,0.502,0.26,1.048,0.574,1.661c0.002,0.004,0.004,0.008,0.006,0.012
			c-0.128,0.138-0.25,0.28-0.376,0.424c-0.8,0.909-1.539,1.749-2.57,2.566c-0.185,0.126-0.482,0.342-0.872,0.626
			c-0.063,0.042-0.124,0.084-0.184,0.13c-0.132,0.084-0.304,0.188-0.492,0.298h-0.747v0.112c-0.064-0.068-0.124-0.166-0.168-0.256
			l-0.046-0.088c-0.042-0.238-0.059-0.456-0.05-0.642c0.012-0.276,0.035-0.558,0.08-0.826c0.054-0.324,0.104-0.636,0.149-0.936
			c0.06-0.4,0.078-0.793,0.052-1.167c-0.008-0.142-0.046-0.296-0.118-0.456L26.46,9.872l-0.026-0.044
			c-0.142-0.244-0.417-0.566-0.945-0.74L25.343,9.03l-0.266-0.012c-0.104,0-0.21,0.014-0.306,0.042
			c-0.32,0.046-0.897,0.284-1.339,1.023c-0.216,0.379-0.382,0.812-0.49,1.303c-0.102,0.441-0.16,0.912-0.174,1.395
			c-0.016,0.494,0.018,0.954,0.102,1.365c0.114,0.502,0.302,0.952,0.562,1.354c0.064,0.094,0.13,0.186,0.198,0.274
			c-0.943,0.312-1.905,0.571-2.785,0.753c0.328-2.019,0.792-4.458,1.388-5.365c0.298-0.464,0.521-1.191,0.244-1.861
			c-0.204-0.49-0.638-0.842-1.188-0.959c-0.176-0.038-0.332-0.05-0.479-0.05c-0.983,0-1.441,0.715-1.627,1.059
			c-0.028,0.032-0.052,0.064-0.08,0.096c-0.338-0.2-0.732-0.364-1.178-0.488c-0.532-0.152-1.073-0.232-1.601-0.232
			c-0.218,0-0.432,0.016-0.644,0.042c-0.612,0.082-1.245,0.33-1.899,0.738c-0.604,0.379-1.169,0.859-1.685,1.431
			c-0.504,0.547-0.919,1.171-1.233,1.855c-0.052,0.058-0.096,0.108-0.132,0.142c-0.136,0.126-0.328,0.306-0.596,0.566
			c-0.242,0.232-0.52,0.482-0.813,0.738c-0.266,0.229-0.558,0.441-0.872,0.629c-0.168,0.1-0.298,0.16-0.398,0.194
			c-0.072-0.226-0.134-0.412-0.2-0.58c-0.072-0.188-0.174-0.356-0.301-0.5c0.137-0.422,0.174-0.83,0.113-1.209
			c-0.117-0.69-0.557-1.248-1.244-1.587c-0.415-0.21-0.865-0.315-1.33-0.315c-0.129,0-0.256,0.008-0.385,0.024
			c-0.522,0.072-0.993,0.25-1.406,0.529c-0.344,0.236-0.604,0.446-0.821,0.656c-0.362,0.38-0.667,0.708-0.927,1.001
			c-0.299,0.344-0.559,0.704-0.77,1.072c-0.227,0.399-0.395,0.832-0.504,1.287c-0.102,0.436-0.153,0.93-0.151,1.475v0.1l0.022,0.128
			c0.08,0.627,0.455,1.251,1.076,1.739c0.536,0.423,1.107,0.635,1.698,0.635c0.117,0,0.234-0.008,0.353-0.024
			c0.518-0.08,1.01-0.348,1.516-0.815c0.361-0.342,0.682-0.684,0.962-1.023c0.063-0.078,0.125-0.152,0.184-0.232
			c0.309,0.232,0.682,0.402,1.104,0.504c0.256,0.06,0.541,0.092,0.838,0.092c0.232,0,0.479-0.018,0.74-0.054
			c0.459-0.064,0.936-0.27,1.491-0.644c0.332-0.226,0.644-0.461,0.936-0.7c0.144,0.18,0.315,0.352,0.516,0.516
			c0.375,0.302,0.779,0.503,1.203,0.591c-2.882,0.528-5.585,1.401-9.187,3.646c-7.869,4.899-7.516,9.809-5.834,13.064
			c1.005,1.943,2.833,3.244,5.148,3.67c0.52,0.095,1.064,0.143,1.621,0.143c2.176,0,5.597-0.742,9.527-4.278
			c4.921-4.438,5.679-9.764,6.237-13.652v-0.004l0.014-0.108c0.024-0.164,0.046-0.328,0.07-0.484
			c2.661-0.456,4.737-0.994,6.48-1.695c-0.024,0.384,0.096,0.733,0.27,0.995c0.278,0.41,0.722,0.624,1.157,0.8
			c0.44,0.164,0.96,0.272,1.6,0.328c0.191,0.016,0.38,0.026,0.567,0.026c0.456,0,0.95-0.044,1.508-0.13
			c0.787-0.126,1.603-0.408,2.433-0.843c0.569-0.298,1.039-0.644,1.401-1.027c0.335-0.358,0.611-0.736,0.819-1.125
			c0.204-0.382,0.348-0.75,0.432-1.109c0.044-0.18,0.086-0.346,0.12-0.508c0.016-0.014,0.038-0.03,0.058-0.044
			c0.458-0.336,0.857-0.75,1.159-1.211c0.272-0.42,0.502-0.884,0.686-1.387c0.114-0.308,0.412-1.387,0.82-2.913l0.111-0.406
			c0.188-0.484,0.092-1.104-0.283-1.577c-0.276-0.338-0.676-0.534-1.107-0.534c-0.229,0-0.454,0.054-0.668,0.16
			c-0.401,0.204-0.666,0.55-0.741,0.948l-0.026,0.054l-0.008,0.162c-0.101,0.78-0.296,1.591-0.646,2.721
			c-0.011,0.034-0.022,0.07-0.034,0.104l-0.24-0.522c-0.062-0.178-0.149-0.368-0.26-0.563c-0.088-0.156-0.188-0.324-0.302-0.516
			c0.03-0.134,0.066-0.302,0.114-0.467c0.096-0.324,0.155-0.678,0.176-1.043c0.025-0.562-0.16-1.104-0.548-1.615
			C35.039,6.294,34.481,6.036,33.83,6.036L33.83,6.036z M14.249,13.938c0.124-0.248,0.272-0.485,0.444-0.721
			c0.288-0.406,0.631-0.756,1.035-1.054c0.324-0.234,0.642-0.376,0.944-0.417c0.048-0.006,0.1-0.01,0.152-0.014
			c-0.176,0.178-0.366,0.358-0.568,0.543c-0.46,0.422-0.952,0.84-1.459,1.244C14.602,13.674,14.42,13.812,14.249,13.938
			L14.249,13.938z M31.993,14.655c0.558-0.558,1.045-1.125,1.463-1.665c0.044,0.076,0.084,0.154,0.126,0.23
			c0.132,0.264,0.214,0.474,0.264,0.638c-0.342,0.168-0.707,0.328-1.089,0.488C32.499,14.449,32.245,14.553,31.993,14.655
			L31.993,14.655z M14.752,17.392c0.136-0.064,0.274-0.136,0.412-0.216c0.416-0.244,0.828-0.532,1.227-0.859
			c0.364-0.296,0.72-0.618,1.056-0.952c0.04-0.04,0.08-0.08,0.118-0.12c-0.09,0.567-0.174,1.171-0.258,1.809
			c-0.264,0.038-0.523,0.07-0.783,0.102C15.912,17.236,15.324,17.312,14.752,17.392L14.752,17.392z M4.205,35.015
			c-0.229,0-0.453-0.017-0.671-0.048c-0.996-0.152-1.746-0.664-2.293-1.56c-2.049-3.351-1.068-5.729,3.746-9.087
			c3.735-2.603,6.751-3.406,11.923-4.106c-0.768,4.894-2.809,9.239-5.473,11.55C9.629,33.329,6.594,35.015,4.205,35.015
			L4.205,35.015z"/>
	</g>
	<g>
		<path fill="#575756" d="M25.261,9.66c-0.374,0-0.596-0.156-0.722-0.3c-0.264-0.162-0.398-0.412-0.392-0.68
			c-0.048-0.216-0.044-0.424,0.016-0.652l0.23-1.205c0.05-0.206,0.118-0.36,0.202-0.504c0.184-0.288,0.466-0.466,0.804-0.506
			c0.026,0,0.052-0.004,0.076-0.004c0.458,0,0.714,0.124,0.888,0.33c0.098,0.118,0.203,0.264,0.245,0.458
			c0.055,0.18,0.055,0.432-0.002,0.78c-0.04,0.244-0.084,0.496-0.146,0.751c-0.062,0.264-0.134,0.512-0.21,0.724
			c-0.116,0.308-0.268,0.724-0.753,0.792L25.261,9.66z"/>
		<path fill="#FFFFFF" d="M25.589,6.308c0.163,0,0.293,0.054,0.377,0.158c0.08,0.096,0.126,0.168,0.141,0.24
			c0.04,0.132,0.036,0.316-0.009,0.583c-0.035,0.236-0.079,0.474-0.136,0.716c-0.06,0.248-0.126,0.476-0.195,0.674
			c-0.103,0.276-0.166,0.432-0.342,0.456c-0.038,0.01-0.096,0.014-0.164,0.014c-0.13,0-0.284-0.03-0.366-0.172
			c-0.012-0.008-0.036-0.03-0.1-0.056c-0.084-0.046-0.138-0.134-0.136-0.23c0-0.062-0.006-0.122-0.014-0.162
			c-0.03-0.114-0.026-0.232,0.012-0.368l0.238-1.239c0.034-0.13,0.08-0.236,0.14-0.336c0.062-0.104,0.188-0.236,0.424-0.266
			C25.507,6.312,25.547,6.308,25.589,6.308 M25.589,5.284c-0.089,0-0.182,0.006-0.282,0.022c-0.468,0.058-0.879,0.32-1.14,0.732
			c-0.124,0.204-0.206,0.399-0.264,0.616l-0.252,1.315c-0.06,0.218-0.072,0.478-0.018,0.734c0.004,0.434,0.226,0.833,0.592,1.065
			c0.202,0.2,0.53,0.4,1.034,0.4c0.144,0,0.266-0.012,0.376-0.034c0.719-0.096,0.971-0.775,1.091-1.104
			c0.084-0.238,0.162-0.506,0.23-0.793c0.062-0.264,0.113-0.532,0.151-0.795c0.066-0.416,0.063-0.732-0.021-1.023
			c-0.051-0.24-0.208-0.456-0.336-0.612C26.47,5.474,26.059,5.284,25.589,5.284L25.589,5.284z"/>
	</g>
</g>
</svg>
