<?xml version="1.0" encoding="utf-8"?>
<!-- Generator: Adobe Illustrator 21.0.0, SVG Export Plug-In . SVG Version: 6.00 Build 0)  -->
<svg version="1.1" id="Layer_1" xmlns="http://www.w3.org/2000/svg" xmlns:xlink="http://www.w3.org/1999/xlink" x="0px" y="0px"
	 viewBox="0 0 86 121" style="enable-background:new 0 0 86 121;" xml:space="preserve">
<style type="text/css">
	.st0{fill:#B1B3B4;stroke:#404041;stroke-width:2;stroke-linejoin:round;stroke-miterlimit:10;}
	.st1{fill:#010000;stroke:#FF8200;stroke-width:4;stroke-linejoin:round;stroke-miterlimit:10;}
	.st2{fill:#404041;stroke:#404041;stroke-width:4;stroke-linecap:round;stroke-linejoin:round;stroke-miterlimit:10;}
	.st3{fill:#404041;stroke:#404041;stroke-width:4;stroke-linejoin:round;stroke-miterlimit:10;}
	.st4{fill:#B1B3B4;stroke:#B1B3B4;stroke-width:2;stroke-linejoin:round;stroke-miterlimit:10;}
	.st5{fill:none;stroke:#010000;stroke-width:6;stroke-linejoin:round;stroke-miterlimit:10;}
	.st6{fill:none;stroke:#010000;stroke-width:4;stroke-linejoin:round;stroke-miterlimit:10;}
</style>
<g>
	<path class="st0" d="M40.8,56.5c-0.5-0.7-0.2-1,0.7-1h3c0.8,0,1.1,0.3,0.7,1l-1.3,1.9c-0.5,0.7-1.2,0.7-1.7,0.1L40.8,56.5z"/>
</g>
<line class="st1" x1="72" y1="34" x2="48" y2="52"/>
<line class="st1" x1="14" y1="34" x2="38" y2="52"/>
<g>
	<path class="st2" d="M73,119H6c-2.2,0-4-1.8-4-4s1.8-4,4-4h74c2.2,0,4,1.8,4,4s-1.8,4-4,4h-9"/>
</g>
<g>
	<path class="st3" d="M63,10h16c2.2,0,4,1.8,4,4s-1.8,4-4,4H63"/>
</g>
<g>
	<line class="st4" x1="8" y1="44" x2="8" y2="108"/>
	<line class="st4" x1="8" y1="21" x2="8" y2="24"/>
	<line class="st4" x1="12" y1="44" x2="12" y2="108"/>
	<line class="st4" x1="12" y1="21" x2="12" y2="24"/>
	<line class="st4" x1="41" y1="63" x2="41" y2="108"/>
	<line class="st4" x1="41" y1="21" x2="41" y2="28"/>
	<line class="st4" x1="45" y1="63" x2="45" y2="108"/>
	<line class="st4" x1="74" y1="44" x2="74" y2="108"/>
	<line class="st4" x1="74" y1="21" x2="74" y2="24"/>
	<line class="st4" x1="78" y1="44" x2="78" y2="108"/>
	<line class="st4" x1="78" y1="21" x2="78" y2="24"/>
</g>
<path class="st2" d="M12.2,41H7.8c-1,0-1.8-0.8-1.8-1.8V28.8c0-1,0.8-1.8,1.8-1.8h4.4c1,0,1.8,0.8,1.8,1.8v10.4
	C14,40.2,13.2,41,12.2,41z"/>
<path class="st2" d="M78.2,41h-4.4c-1,0-1.8-0.8-1.8-1.8V28.8c0-1,0.8-1.8,1.8-1.8h4.4c1,0,1.8,0.8,1.8,1.8v10.4
	C80,40.2,79.2,41,78.2,41z"/>
<line class="st5" x1="45" y1="32" x2="45" y2="28"/>
<g>
	<path class="st6" d="M45,28c0,0,0-0.9,0-2s1.8-2,4-2h7c2.2,0,4-1.8,4-4V6c0-2.2-1.8-4-4-4h-5c-2.2,0-4,1.1-4,2.5S47,7,47,7"/>
</g>
<path class="st3" d="M57,18h-8h2H7c-2.2,0-4-1.8-4-4s1.8-4,4-4h7h-2h39h-3h9"/>
<rect x="38" y="33" class="st2" width="10" height="21"/>
</svg>
