<?xml version="1.0" encoding="utf-8"?>
<!-- Generator: Adobe Illustrator 22.1.0, SVG Export Plug-In . SVG Version: 6.00 Build 0)  -->
<svg version="1.1" id="Layer_1" xmlns="http://www.w3.org/2000/svg" xmlns:xlink="http://www.w3.org/1999/xlink" x="0px" y="0px"
	 viewBox="0 0 283.5 258" style="enable-background:new 0 0 283.5 258;" xml:space="preserve">
<style type="text/css">
	.st0{fill:#404041;}
	.st1{fill:none;}
	.st2{fill:none;stroke:#FF8200;stroke-width:14.1732;stroke-miterlimit:10;}
</style>
<g>
	<path class="st0" d="M203,45.6H80.5c-12.2,0-22.1,9.9-22.1,22.1v122.5c0,12.2,9.9,22.1,22.1,22.1H203c12.2,0,22.1-9.9,22.1-22.1
		V67.7C225.1,55.6,215.2,45.6,203,45.6z M210.9,190.3c0,4.4-3.5,7.9-7.9,7.9H80.5c-4.4,0-7.9-3.5-7.9-7.9V67.7
		c0-4.4,3.6-7.9,7.9-7.9H203c4.4,0,7.9,3.6,7.9,7.9V190.3z"/>
</g>
<polygon class="st1" points="148.8,87.7 134.6,87.7 134.6,121.9 100.5,121.9 100.5,136.1 134.6,136.1 134.6,170.3 148.8,170.3 
	148.8,136.1 183,136.1 183,121.9 148.8,121.9 "/>
<polyline class="st2" points="103.3,152.4 141.8,110.2 180.2,151.8 "/>
</svg>
