<svg id="Décomposer" xmlns="http://www.w3.org/2000/svg" viewBox="0 0 885.46 1020.05"><defs><style>.cls-1{fill:#cdcccc;}.cls-2{fill:#fff;}.cls-3{fill:#1b1b1b;}.cls-4{fill:#808181;}.cls-5{fill:#b4b4b4;}.cls-6{fill:#4e4d4d;}.cls-7{fill:#fefefe;}.cls-8{fill:#b6dfe5;}</style></defs><rect class="cls-1" x="154.99" y="70.75" width="575.63" height="820.67" rx="12"/><path class="cls-2" d="M833.3,1082.39a7.62,7.62,0,0,1-13.2,0l-6.45-11.17L807.2,1060a7.61,7.61,0,0,1,6.6-11.42h25.81A7.61,7.61,0,0,1,846.2,1060l-6.45,11.18Z" transform="translate(-550.14 -511.58)"/><path class="cls-3" d="M826.7,1092a13.28,13.28,0,0,1-11.61-6.7l-12.9-22.35a13.41,13.41,0,0,1,11.61-20.11h25.81a13.41,13.41,0,0,1,11.61,20.11l-12.91,22.35A13.25,13.25,0,0,1,826.7,1092Zm-12.9-37.59a1.84,1.84,0,0,0-1.59,2.75l12.91,22.35a1.84,1.84,0,0,0,3.17,0l12.9-22.35a1.84,1.84,0,0,0-1.58-2.75Z" transform="translate(-550.14 -511.58)"/><rect class="cls-3" x="146.06" y="896.56" width="129.86" height="95.19" rx="12"/><path class="cls-3" d="M810.62,1516.19h-99a28.33,28.33,0,0,1-28.3-28.3v-64.31a28.33,28.33,0,0,1,28.3-28.3h99a28.33,28.33,0,0,1,28.3,28.3v64.31A28.33,28.33,0,0,1,810.62,1516.19Zm-99-95.19a2.6,2.6,0,0,0-2.57,2.58v64.31a2.6,2.6,0,0,0,2.57,2.57h99a2.6,2.6,0,0,0,2.58-2.57v-64.31a2.61,2.61,0,0,0-2.58-2.58Z" transform="translate(-550.14 -511.58)"/><path class="cls-3" d="M825.42,882a12.87,12.87,0,0,1-12.87-12.86V747.06a20.56,20.56,0,0,0-20.76-20.3h-91c-25.63,0-46.48-20.65-46.48-46V589.45a12.86,12.86,0,1,1,25.72,0v91.28A20.55,20.55,0,0,0,700.82,701h91c25.64,0,46.49,20.65,46.49,46V869.18A12.86,12.86,0,0,1,825.42,882Z" transform="translate(-550.14 -511.58)"/><path class="cls-4" d="M576.68,1403a10.3,10.3,0,0,1-10.3-10.29V588.76a10.3,10.3,0,0,1,20.59,0v803.9A10.29,10.29,0,0,1,576.68,1403Z" transform="translate(-550.14 -511.58)"/><path class="cls-4" d="M611.41,1403a10.29,10.29,0,0,1-10.29-10.29V588.76a10.29,10.29,0,0,1,20.58,0v803.9A10.29,10.29,0,0,1,611.41,1403Z" transform="translate(-550.14 -511.58)"/><path class="cls-4" d="M1369,1403a10.29,10.29,0,0,1-10.29-10.29V588.76a10.29,10.29,0,0,1,20.58,0v803.9A10.29,10.29,0,0,1,1369,1403Z" transform="translate(-550.14 -511.58)"/><path class="cls-4" d="M1403.77,1403a10.29,10.29,0,0,1-10.29-10.29V588.76a10.29,10.29,0,0,1,20.58,0v803.9A10.29,10.29,0,0,1,1403.77,1403Z" transform="translate(-550.14 -511.58)"/><path class="cls-3" d="M1417.61,1416.5H567.11a16.08,16.08,0,1,1,0-32.16h850.5a16.08,16.08,0,1,1,0,32.16Z" transform="translate(-550.14 -511.58)"/><path class="cls-3" d="M1327.72,1371.48H657a16.08,16.08,0,0,1,0-32.16h670.72a16.08,16.08,0,0,1,0,32.16Z" transform="translate(-550.14 -511.58)"/><path class="cls-3" d="M1417.61,596.48H563a12.87,12.87,0,1,1,0-25.73h854.6a12.87,12.87,0,1,1,0,25.73Z" transform="translate(-550.14 -511.58)"/><rect class="cls-3" x="0.8" y="425.77" width="87.47" height="100.33" rx="12"/><rect class="cls-3" x="104.14" y="427.06" width="673.66" height="63.03" rx="12"/><rect class="cls-3" x="790.73" y="425.77" width="92.89" height="100.33" rx="12"/><rect class="cls-5" x="227.68" y="361.45" width="97.76" height="176.22" rx="12"/><path class="cls-6" d="M860.15,1057H793.26a23.19,23.19,0,0,1-23.16-23.16V888.47a23.18,23.18,0,0,1,23.16-23.15h66.89a23.18,23.18,0,0,1,23.15,23.15v145.35A23.18,23.18,0,0,1,860.15,1057ZM793.26,880.75a7.72,7.72,0,0,0-7.72,7.72v145.35a7.72,7.72,0,0,0,7.72,7.72h66.89a7.72,7.72,0,0,0,7.71-7.72V888.47a7.72,7.72,0,0,0-7.71-7.72Z" transform="translate(-550.14 -511.58)"/><circle class="cls-7" cx="276.56" cy="482.37" r="21.22"/><path class="cls-3" d="M826.7,1021a27,27,0,1,1,27-27A27,27,0,0,1,826.7,1021Zm0-42.45A15.44,15.44,0,1,0,842.14,994,15.45,15.45,0,0,0,826.7,978.51Z" transform="translate(-550.14 -511.58)"/><rect class="cls-2" x="155.08" y="902.99" width="111.26" height="81.56" rx="12"/><path class="cls-8" d="M779.75,1477a2.55,2.55,0,0,1-1.82-.76L743,1441.27a2.57,2.57,0,1,1,3.64-3.64l34.93,34.94a2.58,2.58,0,0,1-1.82,4.39Z" transform="translate(-550.14 -511.58)"/><path class="cls-8" d="M758.38,1478.37a2.54,2.54,0,0,1-1.82-.76l-17.47-17.46a2.57,2.57,0,1,1,3.64-3.64L760.2,1474a2.57,2.57,0,0,1,0,3.63A2.54,2.54,0,0,1,758.38,1478.37Z" transform="translate(-550.14 -511.58)"/><path class="cls-8" d="M781.16,1455.59a2.59,2.59,0,0,1-1.82-.76l-17.46-17.46a2.57,2.57,0,1,1,3.63-3.64L783,1451.19a2.58,2.58,0,0,1-1.82,4.4Z" transform="translate(-550.14 -511.58)"/><path class="cls-3" d="M637.61,1423.58H566.38A15.48,15.48,0,0,0,551,1439v60.9a16,16,0,0,0,6.68,13l21.77,15.66a16,16,0,0,0,9.38,3h48.83a15.49,15.49,0,0,0,15.44-15.44V1439A15.48,15.48,0,0,0,637.61,1423.58Z" transform="translate(-550.14 -511.58)"/><path class="cls-3" d="M1348.94,1423.58h71.23a15.48,15.48,0,0,1,15.44,15.43v60.9a16.07,16.07,0,0,1-6.68,13l-21.77,15.66a16,16,0,0,1-9.38,3h-48.84a15.48,15.48,0,0,1-15.43-15.44V1439A15.47,15.47,0,0,1,1348.94,1423.58Z" transform="translate(-550.14 -511.58)"/><path class="cls-3" d="M1356.59,565.61h65c7.74,0,14.07-3.48,14.07-7.72V527.44c0-2.58-2.27-5-6.09-6.51l-19.85-7.84a23.75,23.75,0,0,0-8.55-1.51h-44.53c-7.74,0-14.08,3.47-14.08,7.72v38.59C1342.51,562.13,1348.85,565.61,1356.59,565.61Z" transform="translate(-550.14 -511.58)"/><path class="cls-3" d="M623.42,565.61H563.86c-7.1,0-12.91-3.48-12.91-7.72V527.44c0-2.58,2.08-5,5.58-6.51l18.21-7.84a20.18,20.18,0,0,1,7.84-1.51h40.84c7.1,0,12.91,3.47,12.91,7.72v38.59C636.33,562.13,630.52,565.61,623.42,565.61Z" transform="translate(-550.14 -511.58)"/></svg>