<svg xmlns="http://www.w3.org/2000/svg" viewBox="0 0 660.2 1309.35"><defs><style>.cls-1{fill:#ef7f08;}.cls-2{fill:#cdcccc;}.cls-3{fill:#141e31;}.cls-4{fill:#fff;}</style></defs><g id="Calque_2" data-name="Calque 2"><g id="Version_V1.1_final" data-name="Version V1.1 final"><path class="cls-1" d="M247.17,665.17a10,10,0,0,1-9.33-6.39L109.05,326.23A10,10,0,0,1,127.7,319L256.49,651.56a10,10,0,0,1-9.32,13.61Z"/><path class="cls-1" d="M413,665.17a10,10,0,0,1-9.33-13.61L532.5,319a10,10,0,0,1,18.65,7.23L422.35,658.78A10,10,0,0,1,413,665.17Z"/><path class="cls-2" d="M47.8,290.2a10,10,0,0,1-10-10V35a10,10,0,0,1,20,0V280.2A10,10,0,0,1,47.8,290.2Z"/><path class="cls-2" d="M97,290.2a10,10,0,0,1-10-10V35a10,10,0,1,1,20,0V280.2A10,10,0,0,1,97,290.2Z"/><path class="cls-2" d="M305.51,973.13a10,10,0,0,1-10-10V736.44a10,10,0,0,1,20,0V963.13A10,10,0,0,1,305.51,973.13Z"/><path class="cls-2" d="M354.69,973.13a10,10,0,0,1-10-10V736.44a10,10,0,0,1,20,0V963.13A10,10,0,0,1,354.69,973.13Z"/><path class="cls-2" d="M305.51,518.67a10,10,0,0,1-10-10V355.76a10,10,0,0,1,20,0V508.67A10,10,0,0,1,305.51,518.67Z"/><path class="cls-2" d="M354.69,518.67a10,10,0,0,1-10-10V355.76a10,10,0,0,1,20,0V508.67A10,10,0,0,1,354.69,518.67Z"/><path class="cls-2" d="M305.51,290.2a10,10,0,0,1-10-10V35a10,10,0,0,1,20,0V280.2A10,10,0,0,1,305.51,290.2Z"/><path class="cls-2" d="M354.69,290.2a10,10,0,0,1-10-10V35a10,10,0,1,1,20,0V280.2A10,10,0,0,1,354.69,290.2Z"/><path class="cls-2" d="M612.4,290.2a10,10,0,0,1-10-10V35a10,10,0,0,1,20,0V280.2A10,10,0,0,1,612.4,290.2Z"/><path class="cls-2" d="M563.21,290.2a10,10,0,0,1-10-10V35a10,10,0,0,1,20,0V280.2A10,10,0,0,1,563.21,290.2Z"/><path class="cls-2" d="M47.8,1028.39a10,10,0,0,1-10-10V355.76a10,10,0,0,1,20,0v662.63A10,10,0,0,1,47.8,1028.39Z"/><path class="cls-2" d="M97,1028.39a10,10,0,0,1-10-10V355.76a10,10,0,0,1,20,0v662.63A10,10,0,0,1,97,1028.39Z"/><path class="cls-2" d="M612.4,1028.39a10,10,0,0,1-10-10V355.76a10,10,0,0,1,20,0v662.63A10,10,0,0,1,612.4,1028.39Z"/><path class="cls-2" d="M563.21,1028.39a10,10,0,0,1-10-10V355.76a10,10,0,0,1,20,0v662.63A10,10,0,0,1,563.21,1028.39Z"/><path class="cls-3" d="M640.2,40H20A20,20,0,0,1,20,0H640.2a20,20,0,0,1,0,40Z"/><rect class="cls-3" x="10.38" y="263.8" width="118.69" height="106.93" rx="14.97"/><rect class="cls-3" x="271.82" y="263.8" width="118.69" height="106.93" rx="14.97"/><rect class="cls-3" x="531.13" y="263.8" width="118.69" height="106.93" rx="14.97" transform="translate(1180.95 634.53) rotate(-180)"/><path class="cls-3" d="M407.09,690.76h-154a10,10,0,0,1,0-20h154a10,10,0,0,1,0,20Z"/><path class="cls-3" d="M273.55,533.69h34.1a2.5,2.5,0,0,1,2.5,2.5V667a0,0,0,0,1,0,0H273.55a2.5,2.5,0,0,1-2.5-2.5V536.19A2.5,2.5,0,0,1,273.55,533.69Z"/><path class="cls-3" d="M352.55,533.69h36.59a0,0,0,0,1,0,0V664.5a2.5,2.5,0,0,1-2.5,2.5h-34.1a2.5,2.5,0,0,1-2.5-2.5V536.19A2.5,2.5,0,0,1,352.55,533.69Z" transform="translate(739.21 1200.69) rotate(-180)"/><rect class="cls-3" x="305.5" y="574.21" width="49.19" height="92.79"/><path class="cls-3" d="M9.31,1053.78H30.45A12,12,0,0,1,42,1062.47l18.88,72.71a11,11,0,0,0,10.46,8l53.93.57-60.46,161a7,7,0,0,1-6.59,4.63H16.31a7,7,0,0,1-7-7Z"/><path class="cls-3" d="M650.89,1053.78H629.75a12,12,0,0,0-11.54,8.69l-18.88,72.71a11,11,0,0,1-10.46,8l-53.94.57,60.47,161a7,7,0,0,0,6.59,4.63h41.9a7,7,0,0,0,7-7Z"/><circle class="cls-4" cx="330.1" cy="620.6" r="24.59"/><path class="cls-3" d="M338.59,715.46l11.54-20a9.8,9.8,0,0,0-8.49-14.71H318.56a9.8,9.8,0,0,0-8.49,14.71l11.54,20A9.8,9.8,0,0,0,338.59,715.46Z"/><path class="cls-3" d="M588.77,1133.15a1,1,0,0,0,.93-.67l18.9-72.76a22.1,22.1,0,0,1,21.15-15.94h19v-16.3a9.09,9.09,0,0,0-9.09-9.09H18.4a9.09,9.09,0,0,0-9.09,9.09v16.3H30.45a22.11,22.11,0,0,1,21.15,15.94l18.9,72.76a1,1,0,0,0,.93.67l11,.12H577.73Z"/><path class="cls-4" d="M350,1046.27H506.09a6.07,6.07,0,0,1,6.07,7.65l-14,46.46a6.27,6.27,0,0,1-6.06,4.34H364a6.27,6.27,0,0,1-6.06-4.34l-14-46.46A6.07,6.07,0,0,1,350,1046.27Z"/><path class="cls-3" d="M465.19,1096.05a20.56,20.56,0,1,1,20.55-20.55A20.58,20.58,0,0,1,465.19,1096.05Zm0-35.11a14.56,14.56,0,1,0,14.55,14.56A14.57,14.57,0,0,0,465.19,1060.94Z"/><path class="cls-3" d="M427.55,1083.57H373.16v-16.15h54.39Zm-48.39-6h42.39v-4.15H379.16Z"/><polygon class="cls-1" points="330.1 986.18 125.27 986.18 141.22 1004.71 330.1 1004.71 518.98 1004.71 534.93 986.18 330.1 986.18"/></g></g></svg>